<?xml version="1.0"?>
<!-- Generated by SVGo -->
<svg width="124.002mm" height="86.002mm"
     viewBox="0.000 0.000 124.002 86.002"
     xmlns="http://www.w3.org/2000/svg" 
     xmlns:xlink="http://www.w3.org/1999/xlink">
<polygon points="117.002,5.001 117.158,5.007 117.314,5.025 117.468,5.056 117.620,5.098 117.767,5.153 117.909,5.218 118.046,5.295 118.177,5.382 118.300,5.480 118.416,5.586 118.522,5.702 118.620,5.825 118.707,5.956 118.784,6.093 118.849,6.235 118.904,6.382 118.946,6.534 118.977,6.688 118.995,6.844 119.001,7.001 119.002,79.002 118.995,79.158 118.977,79.314 118.946,79.468 118.904,79.620 118.849,79.767 118.784,79.909 118.707,80.046 118.620,80.177 118.522,80.300 118.416,80.416 118.300,80.522 118.177,80.620 118.046,80.707 117.909,80.784 117.767,80.849 117.620,80.904 117.468,80.946 117.314,80.977 117.158,80.995 117.002,81.001 7.001,81.002 6.844,80.995 6.688,80.977 6.534,80.946 6.382,80.904 6.235,80.849 6.093,80.784 5.956,80.707 5.825,80.620 5.702,80.522 5.586,80.416 5.480,80.300 5.382,80.177 5.295,80.046 5.218,79.909 5.153,79.767 5.098,79.620 5.056,79.468 5.025,79.314 5.007,79.158 5.000,79.002 5.001,7.001 5.007,6.844 5.025,6.688 5.056,6.534 5.098,6.382 5.153,6.235 5.218,6.093 5.295,5.956 5.382,5.825 5.480,5.702 5.586,5.586 5.702,5.480 5.825,5.382 5.956,5.295 6.093,5.218 6.235,5.153 6.382,5.098 6.534,5.056 6.688,5.025 6.844,5.007 7.001,5.000" style="fill:none;stroke-width:0.050000mm;stroke:black"/>
<polygon points="7.501,64.501 7.501,78.501 21.501,78.501 21.501,64.501" style="fill:none;stroke-width:0.050000mm;stroke:black"/>
<polygon points="26.501,64.501 26.501,78.501 40.501,78.501 40.501,64.501" style="fill:none;stroke-width:0.050000mm;stroke:black"/>
<polygon points="45.501,64.501 45.501,78.501 59.501,78.501 59.501,64.501" style="fill:none;stroke-width:0.050000mm;stroke:black"/>
<polygon points="64.501,64.501 64.501,78.501 78.501,78.501 78.501,64.501" style="fill:none;stroke-width:0.050000mm;stroke:black"/>
<polygon points="83.501,64.501 83.501,78.501 97.501,78.501 97.501,64.501" style="fill:none;stroke-width:0.050000mm;stroke:black"/>
<polygon points="102.501,64.501 102.501,78.501 116.501,78.501 116.501,64.501" style="fill:none;stroke-width:0.050000mm;stroke:black"/>
<polygon points="61.923,61.004 61.845,61.013 61.768,61.029 61.692,61.050 61.618,61.077 61.547,61.110 61.479,61.148 61.413,61.192 61.352,61.241 61.294,61.294 61.241,61.352 61.192,61.413 61.148,61.479 61.110,61.547 61.077,61.618 61.050,61.692 61.029,61.768 61.013,61.845 61.004,61.923 61.001,62.001 61.004,62.079 61.013,62.157 61.029,62.234 61.050,62.310 61.077,62.384 61.110,62.455 61.148,62.523 61.192,62.589 61.241,62.650 61.294,62.708 61.352,62.761 61.413,62.810 61.479,62.854 61.547,62.892 61.618,62.925 61.692,62.952 61.768,62.973 61.845,62.989 61.923,62.998 62.001,63.001 62.079,62.998 62.157,62.989 62.234,62.973 62.310,62.952 62.384,62.925 62.455,62.892 62.523,62.854 62.589,62.810 62.650,62.761 62.708,62.708 62.761,62.650 62.810,62.589 62.854,62.523 62.892,62.455 62.925,62.384 62.952,62.310 62.973,62.234 62.989,62.157 62.998,62.079 63.001,62.001 62.998,61.923 62.989,61.845 62.973,61.768 62.952,61.692 62.925,61.618 62.892,61.547 62.854,61.479 62.810,61.413 62.761,61.352 62.708,61.294 62.650,61.241 62.589,61.192 62.523,61.148 62.455,61.110 62.384,61.077 62.310,61.050 62.234,61.029 62.157,61.013 62.079,61.004 62.001,61.001" style="fill:none;stroke-width:0.050000mm;stroke:black"/>
<polygon points="99.923,61.004 99.845,61.013 99.768,61.029 99.692,61.050 99.618,61.077 99.547,61.110 99.479,61.148 99.413,61.192 99.352,61.241 99.294,61.294 99.241,61.352 99.192,61.413 99.148,61.479 99.110,61.547 99.077,61.618 99.050,61.692 99.029,61.768 99.013,61.845 99.004,61.923 99.001,62.001 99.004,62.079 99.013,62.157 99.029,62.234 99.050,62.310 99.077,62.384 99.110,62.455 99.148,62.523 99.192,62.589 99.241,62.650 99.294,62.708 99.352,62.761 99.413,62.810 99.479,62.854 99.547,62.892 99.618,62.925 99.692,62.952 99.768,62.973 99.845,62.989 99.923,62.998 100.001,63.001 100.079,62.998 100.157,62.989 100.234,62.973 100.310,62.952 100.384,62.925 100.455,62.892 100.523,62.854 100.589,62.810 100.650,62.761 100.708,62.708 100.761,62.650 100.810,62.589 100.854,62.523 100.892,62.455 100.925,62.384 100.952,62.310 100.973,62.234 100.989,62.157 100.998,62.079 101.001,62.001 100.998,61.923 100.989,61.845 100.973,61.768 100.952,61.692 100.925,61.618 100.892,61.547 100.854,61.479 100.810,61.413 100.761,61.352 100.708,61.294 100.650,61.241 100.589,61.192 100.523,61.148 100.455,61.110 100.384,61.077 100.310,61.050 100.234,61.029 100.157,61.013 100.079,61.004 100.001,61.001" style="fill:none;stroke-width:0.050000mm;stroke:black"/>
<polygon points="23.923,61.004 23.845,61.013 23.768,61.029 23.692,61.050 23.618,61.077 23.547,61.110 23.479,61.148 23.413,61.192 23.352,61.241 23.294,61.294 23.241,61.352 23.192,61.413 23.148,61.479 23.110,61.547 23.077,61.618 23.050,61.692 23.029,61.768 23.013,61.845 23.004,61.923 23.001,62.001 23.004,62.079 23.013,62.157 23.029,62.234 23.050,62.310 23.077,62.384 23.110,62.455 23.148,62.523 23.192,62.589 23.241,62.650 23.294,62.708 23.352,62.761 23.413,62.810 23.479,62.854 23.547,62.892 23.618,62.925 23.692,62.952 23.768,62.973 23.845,62.989 23.923,62.998 24.001,63.001 24.079,62.998 24.157,62.989 24.234,62.973 24.310,62.952 24.384,62.925 24.455,62.892 24.523,62.854 24.589,62.810 24.650,62.761 24.708,62.708 24.761,62.650 24.810,62.589 24.854,62.523 24.892,62.455 24.925,62.384 24.952,62.310 24.973,62.234 24.989,62.157 24.998,62.079 25.001,62.001 24.998,61.923 24.989,61.845 24.973,61.768 24.952,61.692 24.925,61.618 24.892,61.547 24.854,61.479 24.810,61.413 24.761,61.352 24.708,61.294 24.650,61.241 24.589,61.192 24.523,61.148 24.455,61.110 24.384,61.077 24.310,61.050 24.234,61.029 24.157,61.013 24.079,61.004 24.001,61.001" style="fill:none;stroke-width:0.050000mm;stroke:black"/>
<polygon points="7.501,45.501 7.501,59.501 21.501,59.501 21.501,45.501" style="fill:none;stroke-width:0.050000mm;stroke:black"/>
<polygon points="26.501,45.501 26.501,59.501 40.501,59.501 40.501,45.501" style="fill:none;stroke-width:0.050000mm;stroke:black"/>
<polygon points="45.501,45.501 45.501,59.501 59.501,59.501 59.501,45.501" style="fill:none;stroke-width:0.050000mm;stroke:black"/>
<polygon points="64.501,45.501 64.501,59.501 78.501,59.501 78.501,45.501" style="fill:none;stroke-width:0.050000mm;stroke:black"/>
<polygon points="83.501,45.501 83.501,59.501 97.501,59.501 97.501,45.501" style="fill:none;stroke-width:0.050000mm;stroke:black"/>
<polygon points="102.501,45.501 102.501,59.501 116.501,59.501 116.501,45.501" style="fill:none;stroke-width:0.050000mm;stroke:black"/>
<polygon points="7.501,26.501 7.501,40.501 21.501,40.501 21.501,26.501" style="fill:none;stroke-width:0.050000mm;stroke:black"/>
<polygon points="26.501,26.501 26.501,40.501 40.501,40.501 40.501,26.501" style="fill:none;stroke-width:0.050000mm;stroke:black"/>
<polygon points="45.501,26.501 45.501,40.501 59.501,40.501 59.501,26.501" style="fill:none;stroke-width:0.050000mm;stroke:black"/>
<polygon points="64.501,26.501 64.501,40.501 78.501,40.501 78.501,26.501" style="fill:none;stroke-width:0.050000mm;stroke:black"/>
<polygon points="83.501,26.501 83.501,40.501 97.501,40.501 97.501,26.501" style="fill:none;stroke-width:0.050000mm;stroke:black"/>
<polygon points="102.501,26.501 102.501,40.501 116.501,40.501 116.501,26.501" style="fill:none;stroke-width:0.050000mm;stroke:black"/>
<polygon points="61.923,23.004 61.845,23.013 61.768,23.029 61.692,23.050 61.618,23.077 61.547,23.110 61.479,23.148 61.413,23.192 61.352,23.241 61.294,23.294 61.241,23.352 61.192,23.413 61.148,23.479 61.110,23.547 61.077,23.618 61.050,23.692 61.029,23.768 61.013,23.845 61.004,23.923 61.001,24.001 61.004,24.079 61.013,24.157 61.029,24.234 61.050,24.310 61.077,24.384 61.110,24.455 61.148,24.523 61.192,24.589 61.241,24.650 61.294,24.708 61.352,24.761 61.413,24.810 61.479,24.854 61.547,24.892 61.618,24.925 61.692,24.952 61.768,24.973 61.845,24.989 61.923,24.998 62.001,25.001 62.079,24.998 62.157,24.989 62.234,24.973 62.310,24.952 62.384,24.925 62.455,24.892 62.523,24.854 62.589,24.810 62.650,24.761 62.708,24.708 62.761,24.650 62.810,24.589 62.854,24.523 62.892,24.455 62.925,24.384 62.952,24.310 62.973,24.234 62.989,24.157 62.998,24.079 63.001,24.001 62.998,23.923 62.989,23.845 62.973,23.768 62.952,23.692 62.925,23.618 62.892,23.547 62.854,23.479 62.810,23.413 62.761,23.352 62.708,23.294 62.650,23.241 62.589,23.192 62.523,23.148 62.455,23.110 62.384,23.077 62.310,23.050 62.234,23.029 62.157,23.013 62.079,23.004 62.001,23.001" style="fill:none;stroke-width:0.050000mm;stroke:black"/>
<polygon points="99.923,23.004 99.845,23.013 99.768,23.029 99.692,23.050 99.618,23.077 99.547,23.110 99.479,23.148 99.413,23.192 99.352,23.241 99.294,23.294 99.241,23.352 99.192,23.413 99.148,23.479 99.110,23.547 99.077,23.618 99.050,23.692 99.029,23.768 99.013,23.845 99.004,23.923 99.001,24.001 99.004,24.079 99.013,24.157 99.029,24.234 99.050,24.310 99.077,24.384 99.110,24.455 99.148,24.523 99.192,24.589 99.241,24.650 99.294,24.708 99.352,24.761 99.413,24.810 99.479,24.854 99.547,24.892 99.618,24.925 99.692,24.952 99.768,24.973 99.845,24.989 99.923,24.998 100.001,25.001 100.079,24.998 100.157,24.989 100.234,24.973 100.310,24.952 100.384,24.925 100.455,24.892 100.523,24.854 100.589,24.810 100.650,24.761 100.708,24.708 100.761,24.650 100.810,24.589 100.854,24.523 100.892,24.455 100.925,24.384 100.952,24.310 100.973,24.234 100.989,24.157 100.998,24.079 101.001,24.001 100.998,23.923 100.989,23.845 100.973,23.768 100.952,23.692 100.925,23.618 100.892,23.547 100.854,23.479 100.810,23.413 100.761,23.352 100.708,23.294 100.650,23.241 100.589,23.192 100.523,23.148 100.455,23.110 100.384,23.077 100.310,23.050 100.234,23.029 100.157,23.013 100.079,23.004 100.001,23.001" style="fill:none;stroke-width:0.050000mm;stroke:black"/>
<polygon points="23.923,23.004 23.845,23.013 23.768,23.029 23.692,23.050 23.618,23.077 23.547,23.110 23.479,23.148 23.413,23.192 23.352,23.241 23.294,23.294 23.241,23.352 23.192,23.413 23.148,23.479 23.110,23.547 23.077,23.618 23.050,23.692 23.029,23.768 23.013,23.845 23.004,23.923 23.001,24.001 23.004,24.079 23.013,24.157 23.029,24.234 23.050,24.310 23.077,24.384 23.110,24.455 23.148,24.523 23.192,24.589 23.241,24.650 23.294,24.708 23.352,24.761 23.413,24.810 23.479,24.854 23.547,24.892 23.618,24.925 23.692,24.952 23.768,24.973 23.845,24.989 23.923,24.998 24.001,25.001 24.079,24.998 24.157,24.989 24.234,24.973 24.310,24.952 24.384,24.925 24.455,24.892 24.523,24.854 24.589,24.810 24.650,24.761 24.708,24.708 24.761,24.650 24.810,24.589 24.854,24.523 24.892,24.455 24.925,24.384 24.952,24.310 24.973,24.234 24.989,24.157 24.998,24.079 25.001,24.001 24.998,23.923 24.989,23.845 24.973,23.768 24.952,23.692 24.925,23.618 24.892,23.547 24.854,23.479 24.810,23.413 24.761,23.352 24.708,23.294 24.650,23.241 24.589,23.192 24.523,23.148 24.455,23.110 24.384,23.077 24.310,23.050 24.234,23.029 24.157,23.013 24.079,23.004 24.001,23.001" style="fill:none;stroke-width:0.050000mm;stroke:black"/>
<polygon points="7.501,7.501 7.501,21.501 21.501,21.501 21.501,7.501" style="fill:none;stroke-width:0.050000mm;stroke:black"/>
<polygon points="26.501,7.501 26.501,21.501 40.501,21.501 40.501,7.501" style="fill:none;stroke-width:0.050000mm;stroke:black"/>
<polygon points="45.501,7.501 45.501,21.501 59.501,21.501 59.501,7.501" style="fill:none;stroke-width:0.050000mm;stroke:black"/>
<polygon points="64.501,7.501 64.501,21.501 78.501,21.501 78.501,7.501" style="fill:none;stroke-width:0.050000mm;stroke:black"/>
<polygon points="83.501,7.501 83.501,21.501 97.501,21.501 97.501,7.501" style="fill:none;stroke-width:0.050000mm;stroke:black"/>
<polygon points="102.501,7.501 102.501,21.501 116.501,21.501 116.501,7.501" style="fill:none;stroke-width:0.050000mm;stroke:black"/>
</svg>
