  0
SECTION
  2
HEADER
  9
$ACADVER
  1
AC1009
  9
$EXTMIN
 10
0.0
 20
0.0
 30
0.0
  9
$EXTMAX
 10
1000.0
 20
1000.0
 30
0.0
  9
$FILLMODE
 70
 0
  9
$SPLFRAME
 70
 1
  0
ENDSEC
  0
SECTION
  2
TABLES
  0
TABLE
  2
LAYER
 70
1
  0
LAYER
  2
0
 70
     0
 62
     7
  6
CONTINUOUS
  0
ENDTAB
  0
ENDSEC
  0
SECTION
  2
ENTITIES
  0
LINE
  8
0
 62
     0
 10
112.095
 20
76.0924
 30
0.0
 11
112.252
 21
76.0871
 31
0.0
  0
LINE
  8
0
 62
     0
 10
112.252
 20
76.0871
 30
0.0
 11
112.408
 21
76.0691
 31
0.0
  0
LINE
  8
0
 62
     0
 10
112.408
 20
76.0691
 30
0.0
 11
112.562
 21
76.0374
 31
0.0
  0
LINE
  8
0
 62
     0
 10
112.562
 20
76.0374
 30
0.0
 11
112.714
 21
75.9961
 31
0.0
  0
LINE
  8
0
 62
     0
 10
112.714
 20
75.9961
 30
0.0
 11
112.861
 21
75.9411
 31
0.0
  0
LINE
  8
0
 62
     0
 10
112.861
 20
75.9411
 30
0.0
 11
113.003
 21
75.8762
 31
0.0
  0
LINE
  8
0
 62
     0
 10
113.003
 20
75.8762
 30
0.0
 11
113.14
 21
75.7989
 31
0.0
  0
LINE
  8
0
 62
     0
 10
113.14
 20
75.7989
 30
0.0
 11
113.271
 21
75.7121
 31
0.0
  0
LINE
  8
0
 62
     0
 10
113.271
 20
75.7121
 30
0.0
 11
113.393
 21
75.6144
 31
0.0
  0
LINE
  8
0
 62
     0
 10
113.393
 20
75.6144
 30
0.0
 11
113.51
 21
75.5082
 31
0.0
  0
LINE
  8
0
 62
     0
 10
113.51
 20
75.5082
 30
0.0
 11
113.615
 21
75.3925
 31
0.0
  0
LINE
  8
0
 62
     0
 10
113.615
 20
75.3925
 30
0.0
 11
113.714
 21
75.2683
 31
0.0
  0
LINE
  8
0
 62
     0
 10
113.714
 20
75.2683
 30
0.0
 11
113.801
 21
75.1374
 31
0.0
  0
LINE
  8
0
 62
     0
 10
113.801
 20
75.1374
 30
0.0
 11
113.878
 21
75.0013
 31
0.0
  0
LINE
  8
0
 62
     0
 10
113.878
 20
75.0013
 30
0.0
 11
113.943
 21
74.8591
 31
0.0
  0
LINE
  8
0
 62
     0
 10
113.943
 20
74.8591
 30
0.0
 11
113.998
 21
74.7116
 31
0.0
  0
LINE
  8
0
 62
     0
 10
113.998
 20
74.7116
 30
0.0
 11
114.04
 21
74.5603
 31
0.0
  0
LINE
  8
0
 62
     0
 10
114.04
 20
74.5603
 30
0.0
 11
114.071
 21
74.4058
 31
0.0
  0
LINE
  8
0
 62
     0
 10
114.071
 20
74.4058
 30
0.0
 11
114.089
 21
74.2502
 31
0.0
  0
LINE
  8
0
 62
     0
 10
114.089
 20
74.2502
 30
0.0
 11
114.095
 21
74.0929
 31
0.0
  0
LINE
  8
0
 62
     0
 10
114.095
 20
74.0929
 30
0.0
 11
114.096
 21
2.09186
 31
0.0
  0
LINE
  8
0
 62
     0
 10
114.096
 20
2.09186
 30
0.0
 11
114.089
 21
1.93614
 31
0.0
  0
LINE
  8
0
 62
     0
 10
114.089
 20
1.93614
 30
0.0
 11
114.071
 21
1.78043
 31
0.0
  0
LINE
  8
0
 62
     0
 10
114.071
 20
1.78043
 30
0.0
 11
114.04
 21
1.62609
 31
0.0
  0
LINE
  8
0
 62
     0
 10
114.04
 20
1.62609
 30
0.0
 11
113.998
 21
1.4745
 31
0.0
  0
LINE
  8
0
 62
     0
 10
113.998
 20
1.4745
 30
0.0
 11
113.943
 21
1.32705
 31
0.0
  0
LINE
  8
0
 62
     0
 10
113.943
 20
1.32705
 30
0.0
 11
113.878
 21
1.18511
 31
0.0
  0
LINE
  8
0
 62
     0
 10
113.878
 20
1.18511
 30
0.0
 11
113.801
 21
1.04731
 31
0.0
  0
LINE
  8
0
 62
     0
 10
113.801
 20
1.04731
 30
0.0
 11
113.714
 21
0.916397
 31
0.0
  0
LINE
  8
0
 62
     0
 10
113.714
 20
0.916397
 30
0.0
 11
113.615
 21
0.79375
 31
0.0
  0
LINE
  8
0
 62
     0
 10
113.615
 20
0.79375
 30
0.0
 11
113.51
 21
0.677997
 31
0.0
  0
LINE
  8
0
 62
     0
 10
113.51
 20
0.677997
 30
0.0
 11
113.393
 21
0.571885
 31
0.0
  0
LINE
  8
0
 62
     0
 10
113.393
 20
0.571885
 30
0.0
 11
113.271
 21
0.474045
 31
0.0
  0
LINE
  8
0
 62
     0
 10
113.271
 20
0.474045
 30
0.0
 11
113.14
 21
0.38723
 31
0.0
  0
LINE
  8
0
 62
     0
 10
113.14
 20
0.38723
 30
0.0
 11
113.003
 21
0.310059
 31
0.0
  0
LINE
  8
0
 62
     0
 10
113.003
 20
0.310059
 30
0.0
 11
112.861
 21
0.245291
 31
0.0
  0
LINE
  8
0
 62
     0
 10
112.861
 20
0.245291
 30
0.0
 11
112.714
 21
0.190169
 31
0.0
  0
LINE
  8
0
 62
     0
 10
112.714
 20
0.190169
 30
0.0
 11
112.562
 21
0.14745
 31
0.0
  0
LINE
  8
0
 62
     0
 10
112.562
 20
0.14745
 30
0.0
 11
112.408
 21
0.117133
 31
0.0
  0
LINE
  8
0
 62
     0
 10
112.408
 20
0.117133
 30
0.0
 11
112.252
 21
0.0992188
 31
0.0
  0
LINE
  8
0
 62
     0
 10
112.252
 20
0.0992188
 30
0.0
 11
112.095
 21
0.0923286
 31
0.0
  0
LINE
  8
0
 62
     0
 10
112.095
 20
0.0923286
 30
0.0
 11
2.09462
 21
0.0923286
 31
0.0
  0
LINE
  8
0
 62
     0
 10
2.09462
 20
0.0923286
 30
0.0
 11
1.93752
 21
0.0992188
 31
0.0
  0
LINE
  8
0
 62
     0
 10
1.93752
 20
0.0992188
 30
0.0
 11
1.7818
 21
0.117133
 31
0.0
  0
LINE
  8
0
 62
     0
 10
1.7818
 20
0.117133
 30
0.0
 11
1.62746
 21
0.14745
 31
0.0
  0
LINE
  8
0
 62
     0
 10
1.62746
 20
0.14745
 30
0.0
 11
1.47588
 21
0.190169
 31
0.0
  0
LINE
  8
0
 62
     0
 10
1.47588
 20
0.190169
 30
0.0
 11
1.32843
 21
0.245291
 31
0.0
  0
LINE
  8
0
 62
     0
 10
1.32843
 20
0.245291
 30
0.0
 11
1.18649
 21
0.310059
 31
0.0
  0
LINE
  8
0
 62
     0
 10
1.18649
 20
0.310059
 30
0.0
 11
1.05006
 21
0.38723
 31
0.0
  0
LINE
  8
0
 62
     0
 10
1.05006
 20
0.38723
 30
0.0
 11
0.919152
 21
0.474045
 31
0.0
  0
LINE
  8
0
 62
     0
 10
0.919152
 20
0.474045
 30
0.0
 11
0.795129
 21
0.571885
 31
0.0
  0
LINE
  8
0
 62
     0
 10
0.795129
 20
0.571885
 30
0.0
 11
0.679372
 21
0.677997
 31
0.0
  0
LINE
  8
0
 62
     0
 10
0.679372
 20
0.677997
 30
0.0
 11
0.573264
 21
0.79375
 31
0.0
  0
LINE
  8
0
 62
     0
 10
0.573264
 20
0.79375
 30
0.0
 11
0.475424
 21
0.916397
 31
0.0
  0
LINE
  8
0
 62
     0
 10
0.475424
 20
0.916397
 30
0.0
 11
0.388606
 21
1.04731
 31
0.0
  0
LINE
  8
0
 62
     0
 10
0.388606
 20
1.04731
 30
0.0
 11
0.311437
 21
1.18511
 31
0.0
  0
LINE
  8
0
 62
     0
 10
0.311437
 20
1.18511
 30
0.0
 11
0.246669
 21
1.32705
 31
0.0
  0
LINE
  8
0
 62
     0
 10
0.246669
 20
1.32705
 30
0.0
 11
0.191547
 21
1.4745
 31
0.0
  0
LINE
  8
0
 62
     0
 10
0.191547
 20
1.4745
 30
0.0
 11
0.150206
 21
1.62609
 31
0.0
  0
LINE
  8
0
 62
     0
 10
0.150206
 20
1.62609
 30
0.0
 11
0.118511
 21
1.78043
 31
0.0
  0
LINE
  8
0
 62
     0
 10
0.118511
 20
1.78043
 30
0.0
 11
0.100597
 21
1.93614
 31
0.0
  0
LINE
  8
0
 62
     0
 10
0.100597
 20
1.93614
 30
0.0
 11
0.0937066
 21
2.09186
 31
0.0
  0
LINE
  8
0
 62
     0
 10
0.0937066
 20
2.09186
 30
0.0
 11
0.0950846
 21
74.0929
 31
0.0
  0
LINE
  8
0
 62
     0
 10
0.0950846
 20
74.0929
 30
0.0
 11
0.100597
 21
74.2502
 31
0.0
  0
LINE
  8
0
 62
     0
 10
0.100597
 20
74.2502
 30
0.0
 11
0.118511
 21
74.4058
 31
0.0
  0
LINE
  8
0
 62
     0
 10
0.118511
 20
74.4058
 30
0.0
 11
0.150206
 21
74.5603
 31
0.0
  0
LINE
  8
0
 62
     0
 10
0.150206
 20
74.5603
 30
0.0
 11
0.191547
 21
74.7116
 31
0.0
  0
LINE
  8
0
 62
     0
 10
0.191547
 20
74.7116
 30
0.0
 11
0.246669
 21
74.8591
 31
0.0
  0
LINE
  8
0
 62
     0
 10
0.246669
 20
74.8591
 30
0.0
 11
0.311437
 21
75.0013
 31
0.0
  0
LINE
  8
0
 62
     0
 10
0.311437
 20
75.0013
 30
0.0
 11
0.388606
 21
75.1374
 31
0.0
  0
LINE
  8
0
 62
     0
 10
0.388606
 20
75.1374
 30
0.0
 11
0.475424
 21
75.2683
 31
0.0
  0
LINE
  8
0
 62
     0
 10
0.475424
 20
75.2683
 30
0.0
 11
0.573264
 21
75.3925
 31
0.0
  0
LINE
  8
0
 62
     0
 10
0.573264
 20
75.3925
 30
0.0
 11
0.679372
 21
75.5082
 31
0.0
  0
LINE
  8
0
 62
     0
 10
0.679372
 20
75.5082
 30
0.0
 11
0.795129
 21
75.6144
 31
0.0
  0
LINE
  8
0
 62
     0
 10
0.795129
 20
75.6144
 30
0.0
 11
0.919152
 21
75.7121
 31
0.0
  0
LINE
  8
0
 62
     0
 10
0.919152
 20
75.7121
 30
0.0
 11
1.05006
 21
75.7989
 31
0.0
  0
LINE
  8
0
 62
     0
 10
1.05006
 20
75.7989
 30
0.0
 11
1.18649
 21
75.8762
 31
0.0
  0
LINE
  8
0
 62
     0
 10
1.18649
 20
75.8762
 30
0.0
 11
1.32843
 21
75.9411
 31
0.0
  0
LINE
  8
0
 62
     0
 10
1.32843
 20
75.9411
 30
0.0
 11
1.47588
 21
75.9961
 31
0.0
  0
LINE
  8
0
 62
     0
 10
1.47588
 20
75.9961
 30
0.0
 11
1.62746
 21
76.0374
 31
0.0
  0
LINE
  8
0
 62
     0
 10
1.62746
 20
76.0374
 30
0.0
 11
1.7818
 21
76.0691
 31
0.0
  0
LINE
  8
0
 62
     0
 10
1.7818
 20
76.0691
 30
0.0
 11
1.93752
 21
76.0871
 31
0.0
  0
LINE
  8
0
 62
     0
 10
1.93752
 20
76.0871
 30
0.0
 11
2.09462
 21
76.0938
 31
0.0
  0
LINE
  8
0
 62
     0
 10
2.09462
 20
76.0938
 30
0.0
 11
112.095
 21
76.0924
 31
0.0
  0
LINE
  8
0
 62
     0
 10
2.59485
 20
16.593
 30
0.0
 11
16.5943
 21
16.593
 31
0.0
  0
LINE
  8
0
 62
     0
 10
16.5943
 20
16.593
 30
0.0
 11
16.5943
 21
2.59347
 31
0.0
  0
LINE
  8
0
 62
     0
 10
16.5943
 20
2.59347
 30
0.0
 11
2.59485
 21
2.59347
 31
0.0
  0
LINE
  8
0
 62
     0
 10
2.59485
 20
2.59347
 30
0.0
 11
2.59485
 21
16.593
 31
0.0
  0
LINE
  8
0
 62
     0
 10
21.5952
 20
16.593
 30
0.0
 11
35.5946
 21
16.593
 31
0.0
  0
LINE
  8
0
 62
     0
 10
35.5946
 20
16.593
 30
0.0
 11
35.5946
 21
2.59347
 31
0.0
  0
LINE
  8
0
 62
     0
 10
35.5946
 20
2.59347
 30
0.0
 11
21.5952
 21
2.59347
 31
0.0
  0
LINE
  8
0
 62
     0
 10
21.5952
 20
2.59347
 30
0.0
 11
21.5952
 21
16.593
 31
0.0
  0
LINE
  8
0
 62
     0
 10
40.5941
 20
16.593
 30
0.0
 11
54.5952
 21
16.593
 31
0.0
  0
LINE
  8
0
 62
     0
 10
54.5952
 20
16.593
 30
0.0
 11
54.5952
 21
2.59347
 31
0.0
  0
LINE
  8
0
 62
     0
 10
54.5952
 20
2.59347
 30
0.0
 11
40.5941
 21
2.59347
 31
0.0
  0
LINE
  8
0
 62
     0
 10
40.5941
 20
2.59347
 30
0.0
 11
40.5941
 21
16.593
 31
0.0
  0
LINE
  8
0
 62
     0
 10
59.5947
 20
16.593
 30
0.0
 11
73.594
 21
16.593
 31
0.0
  0
LINE
  8
0
 62
     0
 10
73.594
 20
16.593
 30
0.0
 11
73.594
 21
2.59347
 31
0.0
  0
LINE
  8
0
 62
     0
 10
73.594
 20
2.59347
 30
0.0
 11
59.5947
 21
2.59347
 31
0.0
  0
LINE
  8
0
 62
     0
 10
59.5947
 20
2.59347
 30
0.0
 11
59.5947
 21
16.593
 31
0.0
  0
LINE
  8
0
 62
     0
 10
78.595
 20
16.593
 30
0.0
 11
92.5946
 21
16.593
 31
0.0
  0
LINE
  8
0
 62
     0
 10
92.5946
 20
16.593
 30
0.0
 11
92.5946
 21
2.59347
 31
0.0
  0
LINE
  8
0
 62
     0
 10
92.5946
 20
2.59347
 30
0.0
 11
78.595
 21
2.59347
 31
0.0
  0
LINE
  8
0
 62
     0
 10
78.595
 20
2.59347
 30
0.0
 11
78.595
 21
16.593
 31
0.0
  0
LINE
  8
0
 62
     0
 10
97.5953
 20
16.593
 30
0.0
 11
111.595
 21
16.593
 31
0.0
  0
LINE
  8
0
 62
     0
 10
111.595
 20
16.593
 30
0.0
 11
111.595
 21
2.59347
 31
0.0
  0
LINE
  8
0
 62
     0
 10
111.595
 20
2.59347
 30
0.0
 11
97.5953
 21
2.59347
 31
0.0
  0
LINE
  8
0
 62
     0
 10
97.5953
 20
2.59347
 30
0.0
 11
97.5953
 21
16.593
 31
0.0
  0
LINE
  8
0
 62
     0
 10
57.0163
 20
20.0904
 30
0.0
 11
56.939
 21
20.0808
 31
0.0
  0
LINE
  8
0
 62
     0
 10
56.939
 20
20.0808
 30
0.0
 11
56.8621
 21
20.0642
 31
0.0
  0
LINE
  8
0
 62
     0
 10
56.8621
 20
20.0642
 30
0.0
 11
56.7863
 21
20.0436
 31
0.0
  0
LINE
  8
0
 62
     0
 10
56.7863
 20
20.0436
 30
0.0
 11
56.7118
 21
20.0174
 31
0.0
  0
LINE
  8
0
 62
     0
 10
56.7118
 20
20.0174
 30
0.0
 11
56.6402
 21
19.9843
 31
0.0
  0
LINE
  8
0
 62
     0
 10
56.6402
 20
19.9843
 30
0.0
 11
56.5725
 21
19.9457
 31
0.0
  0
LINE
  8
0
 62
     0
 10
56.5725
 20
19.9457
 30
0.0
 11
56.5065
 21
19.9016
 31
0.0
  0
LINE
  8
0
 62
     0
 10
56.5065
 20
19.9016
 30
0.0
 11
56.4459
 21
19.8534
 31
0.0
  0
LINE
  8
0
 62
     0
 10
56.4459
 20
19.8534
 30
0.0
 11
56.388
 21
19.7997
 31
0.0
  0
LINE
  8
0
 62
     0
 10
56.388
 20
19.7997
 30
0.0
 11
56.3344
 21
19.7418
 31
0.0
  0
LINE
  8
0
 62
     0
 10
56.3344
 20
19.7418
 30
0.0
 11
56.286
 21
19.6812
 31
0.0
  0
LINE
  8
0
 62
     0
 10
56.286
 20
19.6812
 30
0.0
 11
56.2419
 21
19.615
 31
0.0
  0
LINE
  8
0
 62
     0
 10
56.2419
 20
19.615
 30
0.0
 11
56.2031
 21
19.5475
 31
0.0
  0
LINE
  8
0
 62
     0
 10
56.2031
 20
19.5475
 30
0.0
 11
56.1703
 21
19.4758
 31
0.0
  0
LINE
  8
0
 62
     0
 10
56.1703
 20
19.4758
 30
0.0
 11
56.1439
 21
19.4014
 31
0.0
  0
LINE
  8
0
 62
     0
 10
56.1439
 20
19.4014
 30
0.0
 11
56.1234
 21
19.3256
 31
0.0
  0
LINE
  8
0
 62
     0
 10
56.1234
 20
19.3256
 30
0.0
 11
56.1068
 21
19.2484
 31
0.0
  0
LINE
  8
0
 62
     0
 10
56.1068
 20
19.2484
 30
0.0
 11
56.0973
 21
19.1713
 31
0.0
  0
LINE
  8
0
 62
     0
 10
56.0973
 20
19.1713
 30
0.0
 11
56.0945
 21
19.0927
 31
0.0
  0
LINE
  8
0
 62
     0
 10
56.0945
 20
19.0927
 30
0.0
 11
56.0973
 21
19.0142
 31
0.0
  0
LINE
  8
0
 62
     0
 10
56.0973
 20
19.0142
 30
0.0
 11
56.1068
 21
18.937
 31
0.0
  0
LINE
  8
0
 62
     0
 10
56.1068
 20
18.937
 30
0.0
 11
56.1234
 21
18.8598
 31
0.0
  0
LINE
  8
0
 62
     0
 10
56.1234
 20
18.8598
 30
0.0
 11
56.1439
 21
18.784
 31
0.0
  0
LINE
  8
0
 62
     0
 10
56.1439
 20
18.784
 30
0.0
 11
56.1703
 21
18.7096
 31
0.0
  0
LINE
  8
0
 62
     0
 10
56.1703
 20
18.7096
 30
0.0
 11
56.2031
 21
18.6393
 31
0.0
  0
LINE
  8
0
 62
     0
 10
56.2031
 20
18.6393
 30
0.0
 11
56.2419
 21
18.5704
 31
0.0
  0
LINE
  8
0
 62
     0
 10
56.2419
 20
18.5704
 30
0.0
 11
56.286
 21
18.5043
 31
0.0
  0
LINE
  8
0
 62
     0
 10
56.286
 20
18.5043
 30
0.0
 11
56.3344
 21
18.4437
 31
0.0
  0
LINE
  8
0
 62
     0
 10
56.3344
 20
18.4437
 30
0.0
 11
56.388
 21
18.3858
 31
0.0
  0
LINE
  8
0
 62
     0
 10
56.388
 20
18.3858
 30
0.0
 11
56.4459
 21
18.3334
 31
0.0
  0
LINE
  8
0
 62
     0
 10
56.4459
 20
18.3334
 30
0.0
 11
56.5065
 21
18.2838
 31
0.0
  0
LINE
  8
0
 62
     0
 10
56.5065
 20
18.2838
 30
0.0
 11
56.5725
 21
18.2397
 31
0.0
  0
LINE
  8
0
 62
     0
 10
56.5725
 20
18.2397
 30
0.0
 11
56.6402
 21
18.2025
 31
0.0
  0
LINE
  8
0
 62
     0
 10
56.6402
 20
18.2025
 30
0.0
 11
56.7118
 21
18.1694
 31
0.0
  0
LINE
  8
0
 62
     0
 10
56.7118
 20
18.1694
 30
0.0
 11
56.7863
 21
18.1419
 31
0.0
  0
LINE
  8
0
 62
     0
 10
56.7863
 20
18.1419
 30
0.0
 11
56.8621
 21
18.1212
 31
0.0
  0
LINE
  8
0
 62
     0
 10
56.8621
 20
18.1212
 30
0.0
 11
56.939
 21
18.1047
 31
0.0
  0
LINE
  8
0
 62
     0
 10
56.939
 20
18.1047
 30
0.0
 11
57.0163
 21
18.0964
 31
0.0
  0
LINE
  8
0
 62
     0
 10
57.0163
 20
18.0964
 30
0.0
 11
57.095
 21
18.0923
 31
0.0
  0
LINE
  8
0
 62
     0
 10
57.095
 20
18.0923
 30
0.0
 11
57.1733
 21
18.0964
 31
0.0
  0
LINE
  8
0
 62
     0
 10
57.1733
 20
18.0964
 30
0.0
 11
57.2505
 21
18.1047
 31
0.0
  0
LINE
  8
0
 62
     0
 10
57.2505
 20
18.1047
 30
0.0
 11
57.3278
 21
18.1212
 31
0.0
  0
LINE
  8
0
 62
     0
 10
57.3278
 20
18.1212
 30
0.0
 11
57.4036
 21
18.1419
 31
0.0
  0
LINE
  8
0
 62
     0
 10
57.4036
 20
18.1419
 30
0.0
 11
57.4781
 21
18.1694
 31
0.0
  0
LINE
  8
0
 62
     0
 10
57.4781
 20
18.1694
 30
0.0
 11
57.5483
 21
18.2025
 31
0.0
  0
LINE
  8
0
 62
     0
 10
57.5483
 20
18.2025
 30
0.0
 11
57.6171
 21
18.2397
 31
0.0
  0
LINE
  8
0
 62
     0
 10
57.6171
 20
18.2397
 30
0.0
 11
57.6834
 21
18.2838
 31
0.0
  0
LINE
  8
0
 62
     0
 10
57.6834
 20
18.2838
 30
0.0
 11
57.7441
 21
18.3334
 31
0.0
  0
LINE
  8
0
 62
     0
 10
57.7441
 20
18.3334
 30
0.0
 11
57.8019
 21
18.3858
 31
0.0
  0
LINE
  8
0
 62
     0
 10
57.8019
 20
18.3858
 30
0.0
 11
57.8541
 21
18.4437
 31
0.0
  0
LINE
  8
0
 62
     0
 10
57.8541
 20
18.4437
 30
0.0
 11
57.9039
 21
18.5043
 31
0.0
  0
LINE
  8
0
 62
     0
 10
57.9039
 20
18.5043
 30
0.0
 11
57.948
 21
18.5704
 31
0.0
  0
LINE
  8
0
 62
     0
 10
57.948
 20
18.5704
 30
0.0
 11
57.985
 21
18.6393
 31
0.0
  0
LINE
  8
0
 62
     0
 10
57.985
 20
18.6393
 30
0.0
 11
58.0182
 21
18.7096
 31
0.0
  0
LINE
  8
0
 62
     0
 10
58.0182
 20
18.7096
 30
0.0
 11
58.0457
 21
18.784
 31
0.0
  0
LINE
  8
0
 62
     0
 10
58.0457
 20
18.784
 30
0.0
 11
58.0665
 21
18.8598
 31
0.0
  0
LINE
  8
0
 62
     0
 10
58.0665
 20
18.8598
 30
0.0
 11
58.0831
 21
18.937
 31
0.0
  0
LINE
  8
0
 62
     0
 10
58.0831
 20
18.937
 30
0.0
 11
58.0912
 21
19.0142
 31
0.0
  0
LINE
  8
0
 62
     0
 10
58.0912
 20
19.0142
 30
0.0
 11
58.0954
 21
19.0927
 31
0.0
  0
LINE
  8
0
 62
     0
 10
58.0954
 20
19.0927
 30
0.0
 11
58.0912
 21
19.1713
 31
0.0
  0
LINE
  8
0
 62
     0
 10
58.0912
 20
19.1713
 30
0.0
 11
58.0831
 21
19.2484
 31
0.0
  0
LINE
  8
0
 62
     0
 10
58.0831
 20
19.2484
 30
0.0
 11
58.0665
 21
19.3256
 31
0.0
  0
LINE
  8
0
 62
     0
 10
58.0665
 20
19.3256
 30
0.0
 11
58.0457
 21
19.4014
 31
0.0
  0
LINE
  8
0
 62
     0
 10
58.0457
 20
19.4014
 30
0.0
 11
58.0182
 21
19.4758
 31
0.0
  0
LINE
  8
0
 62
     0
 10
58.0182
 20
19.4758
 30
0.0
 11
57.985
 21
19.5475
 31
0.0
  0
LINE
  8
0
 62
     0
 10
57.985
 20
19.5475
 30
0.0
 11
57.948
 21
19.615
 31
0.0
  0
LINE
  8
0
 62
     0
 10
57.948
 20
19.615
 30
0.0
 11
57.9039
 21
19.6812
 31
0.0
  0
LINE
  8
0
 62
     0
 10
57.9039
 20
19.6812
 30
0.0
 11
57.8541
 21
19.7418
 31
0.0
  0
LINE
  8
0
 62
     0
 10
57.8541
 20
19.7418
 30
0.0
 11
57.8019
 21
19.7997
 31
0.0
  0
LINE
  8
0
 62
     0
 10
57.8019
 20
19.7997
 30
0.0
 11
57.7441
 21
19.8534
 31
0.0
  0
LINE
  8
0
 62
     0
 10
57.7441
 20
19.8534
 30
0.0
 11
57.6834
 21
19.9016
 31
0.0
  0
LINE
  8
0
 62
     0
 10
57.6834
 20
19.9016
 30
0.0
 11
57.6171
 21
19.9457
 31
0.0
  0
LINE
  8
0
 62
     0
 10
57.6171
 20
19.9457
 30
0.0
 11
57.5483
 21
19.9843
 31
0.0
  0
LINE
  8
0
 62
     0
 10
57.5483
 20
19.9843
 30
0.0
 11
57.4781
 21
20.0174
 31
0.0
  0
LINE
  8
0
 62
     0
 10
57.4781
 20
20.0174
 30
0.0
 11
57.4036
 21
20.0436
 31
0.0
  0
LINE
  8
0
 62
     0
 10
57.4036
 20
20.0436
 30
0.0
 11
57.3278
 21
20.0642
 31
0.0
  0
LINE
  8
0
 62
     0
 10
57.3278
 20
20.0642
 30
0.0
 11
57.2505
 21
20.0808
 31
0.0
  0
LINE
  8
0
 62
     0
 10
57.2505
 20
20.0808
 30
0.0
 11
57.1733
 21
20.0904
 31
0.0
  0
LINE
  8
0
 62
     0
 10
57.1733
 20
20.0904
 30
0.0
 11
57.095
 21
20.0932
 31
0.0
  0
LINE
  8
0
 62
     0
 10
57.095
 20
20.0932
 30
0.0
 11
57.0163
 21
20.0904
 31
0.0
  0
LINE
  8
0
 62
     0
 10
95.0172
 20
20.0904
 30
0.0
 11
94.9385
 21
20.0808
 31
0.0
  0
LINE
  8
0
 62
     0
 10
94.9385
 20
20.0808
 30
0.0
 11
94.8612
 21
20.0642
 31
0.0
  0
LINE
  8
0
 62
     0
 10
94.8612
 20
20.0642
 30
0.0
 11
94.7857
 21
20.0436
 31
0.0
  0
LINE
  8
0
 62
     0
 10
94.7857
 20
20.0436
 30
0.0
 11
94.7113
 21
20.0174
 31
0.0
  0
LINE
  8
0
 62
     0
 10
94.7113
 20
20.0174
 30
0.0
 11
94.6408
 21
19.9843
 31
0.0
  0
LINE
  8
0
 62
     0
 10
94.6408
 20
19.9843
 30
0.0
 11
94.5734
 21
19.9457
 31
0.0
  0
LINE
  8
0
 62
     0
 10
94.5734
 20
19.9457
 30
0.0
 11
94.5074
 21
19.9016
 31
0.0
  0
LINE
  8
0
 62
     0
 10
94.5074
 20
19.9016
 30
0.0
 11
94.4453
 21
19.8534
 31
0.0
  0
LINE
  8
0
 62
     0
 10
94.4453
 20
19.8534
 30
0.0
 11
94.3875
 21
19.7997
 31
0.0
  0
LINE
  8
0
 62
     0
 10
94.3875
 20
19.7997
 30
0.0
 11
94.3349
 21
19.7418
 31
0.0
  0
LINE
  8
0
 62
     0
 10
94.3349
 20
19.7418
 30
0.0
 11
94.2855
 21
19.6812
 31
0.0
  0
LINE
  8
0
 62
     0
 10
94.2855
 20
19.6812
 30
0.0
 11
94.2414
 21
19.615
 31
0.0
  0
LINE
  8
0
 62
     0
 10
94.2414
 20
19.615
 30
0.0
 11
94.204
 21
19.5475
 31
0.0
  0
LINE
  8
0
 62
     0
 10
94.204
 20
19.5475
 30
0.0
 11
94.1709
 21
19.4758
 31
0.0
  0
LINE
  8
0
 62
     0
 10
94.1709
 20
19.4758
 30
0.0
 11
94.1433
 21
19.4014
 31
0.0
  0
LINE
  8
0
 62
     0
 10
94.1433
 20
19.4014
 30
0.0
 11
94.1229
 21
19.3256
 31
0.0
  0
LINE
  8
0
 62
     0
 10
94.1229
 20
19.3256
 30
0.0
 11
94.1063
 21
19.2484
 31
0.0
  0
LINE
  8
0
 62
     0
 10
94.1063
 20
19.2484
 30
0.0
 11
94.0978
 21
19.1713
 31
0.0
  0
LINE
  8
0
 62
     0
 10
94.0978
 20
19.1713
 30
0.0
 11
94.0954
 21
19.0927
 31
0.0
  0
LINE
  8
0
 62
     0
 10
94.0954
 20
19.0927
 30
0.0
 11
94.0978
 21
19.0142
 31
0.0
  0
LINE
  8
0
 62
     0
 10
94.0978
 20
19.0142
 30
0.0
 11
94.1063
 21
18.937
 31
0.0
  0
LINE
  8
0
 62
     0
 10
94.1063
 20
18.937
 30
0.0
 11
94.1229
 21
18.8598
 31
0.0
  0
LINE
  8
0
 62
     0
 10
94.1229
 20
18.8598
 30
0.0
 11
94.1433
 21
18.784
 31
0.0
  0
LINE
  8
0
 62
     0
 10
94.1433
 20
18.784
 30
0.0
 11
94.1709
 21
18.7096
 31
0.0
  0
LINE
  8
0
 62
     0
 10
94.1709
 20
18.7096
 30
0.0
 11
94.204
 21
18.6393
 31
0.0
  0
LINE
  8
0
 62
     0
 10
94.204
 20
18.6393
 30
0.0
 11
94.2414
 21
18.5704
 31
0.0
  0
LINE
  8
0
 62
     0
 10
94.2414
 20
18.5704
 30
0.0
 11
94.2855
 21
18.5043
 31
0.0
  0
LINE
  8
0
 62
     0
 10
94.2855
 20
18.5043
 30
0.0
 11
94.3349
 21
18.4437
 31
0.0
  0
LINE
  8
0
 62
     0
 10
94.3349
 20
18.4437
 30
0.0
 11
94.3875
 21
18.3858
 31
0.0
  0
LINE
  8
0
 62
     0
 10
94.3875
 20
18.3858
 30
0.0
 11
94.4453
 21
18.3334
 31
0.0
  0
LINE
  8
0
 62
     0
 10
94.4453
 20
18.3334
 30
0.0
 11
94.5074
 21
18.2838
 31
0.0
  0
LINE
  8
0
 62
     0
 10
94.5074
 20
18.2838
 30
0.0
 11
94.5734
 21
18.2397
 31
0.0
  0
LINE
  8
0
 62
     0
 10
94.5734
 20
18.2397
 30
0.0
 11
94.6408
 21
18.2025
 31
0.0
  0
LINE
  8
0
 62
     0
 10
94.6408
 20
18.2025
 30
0.0
 11
94.7113
 21
18.1694
 31
0.0
  0
LINE
  8
0
 62
     0
 10
94.7113
 20
18.1694
 30
0.0
 11
94.7857
 21
18.1419
 31
0.0
  0
LINE
  8
0
 62
     0
 10
94.7857
 20
18.1419
 30
0.0
 11
94.8612
 21
18.1212
 31
0.0
  0
LINE
  8
0
 62
     0
 10
94.8612
 20
18.1212
 30
0.0
 11
94.9385
 21
18.1047
 31
0.0
  0
LINE
  8
0
 62
     0
 10
94.9385
 20
18.1047
 30
0.0
 11
95.0172
 21
18.0964
 31
0.0
  0
LINE
  8
0
 62
     0
 10
95.0172
 20
18.0964
 30
0.0
 11
95.0944
 21
18.0923
 31
0.0
  0
LINE
  8
0
 62
     0
 10
95.0944
 20
18.0923
 30
0.0
 11
95.1727
 21
18.0964
 31
0.0
  0
LINE
  8
0
 62
     0
 10
95.1727
 20
18.0964
 30
0.0
 11
95.2514
 21
18.1047
 31
0.0
  0
LINE
  8
0
 62
     0
 10
95.2514
 20
18.1047
 30
0.0
 11
95.3273
 21
18.1212
 31
0.0
  0
LINE
  8
0
 62
     0
 10
95.3273
 20
18.1212
 30
0.0
 11
95.4045
 21
18.1419
 31
0.0
  0
LINE
  8
0
 62
     0
 10
95.4045
 20
18.1419
 30
0.0
 11
95.4775
 21
18.1694
 31
0.0
  0
LINE
  8
0
 62
     0
 10
95.4775
 20
18.1694
 30
0.0
 11
95.5492
 21
18.2025
 31
0.0
  0
LINE
  8
0
 62
     0
 10
95.5492
 20
18.2025
 30
0.0
 11
95.6165
 21
18.2397
 31
0.0
  0
LINE
  8
0
 62
     0
 10
95.6165
 20
18.2397
 30
0.0
 11
95.6829
 21
18.2838
 31
0.0
  0
LINE
  8
0
 62
     0
 10
95.6829
 20
18.2838
 30
0.0
 11
95.7432
 21
18.3334
 31
0.0
  0
LINE
  8
0
 62
     0
 10
95.7432
 20
18.3334
 30
0.0
 11
95.8014
 21
18.3858
 31
0.0
  0
LINE
  8
0
 62
     0
 10
95.8014
 20
18.3858
 30
0.0
 11
95.855
 21
18.4437
 31
0.0
  0
LINE
  8
0
 62
     0
 10
95.855
 20
18.4437
 30
0.0
 11
95.9033
 21
18.5043
 31
0.0
  0
LINE
  8
0
 62
     0
 10
95.9033
 20
18.5043
 30
0.0
 11
95.9474
 21
18.5704
 31
0.0
  0
LINE
  8
0
 62
     0
 10
95.9474
 20
18.5704
 30
0.0
 11
95.9859
 21
18.6393
 31
0.0
  0
LINE
  8
0
 62
     0
 10
95.9859
 20
18.6393
 30
0.0
 11
96.0191
 21
18.7096
 31
0.0
  0
LINE
  8
0
 62
     0
 10
96.0191
 20
18.7096
 30
0.0
 11
96.0452
 21
18.784
 31
0.0
  0
LINE
  8
0
 62
     0
 10
96.0452
 20
18.784
 30
0.0
 11
96.067
 21
18.8598
 31
0.0
  0
LINE
  8
0
 62
     0
 10
96.067
 20
18.8598
 30
0.0
 11
96.0822
 21
18.937
 31
0.0
  0
LINE
  8
0
 62
     0
 10
96.0822
 20
18.937
 30
0.0
 11
96.0921
 21
19.0142
 31
0.0
  0
LINE
  8
0
 62
     0
 10
96.0921
 20
19.0142
 30
0.0
 11
96.0949
 21
19.0927
 31
0.0
  0
LINE
  8
0
 62
     0
 10
96.0949
 20
19.0927
 30
0.0
 11
96.0921
 21
19.1713
 31
0.0
  0
LINE
  8
0
 62
     0
 10
96.0921
 20
19.1713
 30
0.0
 11
96.0822
 21
19.2484
 31
0.0
  0
LINE
  8
0
 62
     0
 10
96.0822
 20
19.2484
 30
0.0
 11
96.067
 21
19.3256
 31
0.0
  0
LINE
  8
0
 62
     0
 10
96.067
 20
19.3256
 30
0.0
 11
96.0452
 21
19.4014
 31
0.0
  0
LINE
  8
0
 62
     0
 10
96.0452
 20
19.4014
 30
0.0
 11
96.0191
 21
19.4758
 31
0.0
  0
LINE
  8
0
 62
     0
 10
96.0191
 20
19.4758
 30
0.0
 11
95.9859
 21
19.5475
 31
0.0
  0
LINE
  8
0
 62
     0
 10
95.9859
 20
19.5475
 30
0.0
 11
95.9474
 21
19.615
 31
0.0
  0
LINE
  8
0
 62
     0
 10
95.9474
 20
19.615
 30
0.0
 11
95.9033
 21
19.6812
 31
0.0
  0
LINE
  8
0
 62
     0
 10
95.9033
 20
19.6812
 30
0.0
 11
95.855
 21
19.7418
 31
0.0
  0
LINE
  8
0
 62
     0
 10
95.855
 20
19.7418
 30
0.0
 11
95.8014
 21
19.7997
 31
0.0
  0
LINE
  8
0
 62
     0
 10
95.8014
 20
19.7997
 30
0.0
 11
95.7432
 21
19.8534
 31
0.0
  0
LINE
  8
0
 62
     0
 10
95.7432
 20
19.8534
 30
0.0
 11
95.6829
 21
19.9016
 31
0.0
  0
LINE
  8
0
 62
     0
 10
95.6829
 20
19.9016
 30
0.0
 11
95.6165
 21
19.9457
 31
0.0
  0
LINE
  8
0
 62
     0
 10
95.6165
 20
19.9457
 30
0.0
 11
95.5492
 21
19.9843
 31
0.0
  0
LINE
  8
0
 62
     0
 10
95.5492
 20
19.9843
 30
0.0
 11
95.4775
 21
20.0174
 31
0.0
  0
LINE
  8
0
 62
     0
 10
95.4775
 20
20.0174
 30
0.0
 11
95.4045
 21
20.0436
 31
0.0
  0
LINE
  8
0
 62
     0
 10
95.4045
 20
20.0436
 30
0.0
 11
95.3273
 21
20.0642
 31
0.0
  0
LINE
  8
0
 62
     0
 10
95.3273
 20
20.0642
 30
0.0
 11
95.2514
 21
20.0808
 31
0.0
  0
LINE
  8
0
 62
     0
 10
95.2514
 20
20.0808
 30
0.0
 11
95.1727
 21
20.0904
 31
0.0
  0
LINE
  8
0
 62
     0
 10
95.1727
 20
20.0904
 30
0.0
 11
95.0944
 21
20.0932
 31
0.0
  0
LINE
  8
0
 62
     0
 10
95.0944
 20
20.0932
 30
0.0
 11
95.0172
 21
20.0904
 31
0.0
  0
LINE
  8
0
 62
     0
 10
19.0169
 20
20.0904
 30
0.0
 11
18.9384
 21
20.0808
 31
0.0
  0
LINE
  8
0
 62
     0
 10
18.9384
 20
20.0808
 30
0.0
 11
18.8612
 21
20.0642
 31
0.0
  0
LINE
  8
0
 62
     0
 10
18.8612
 20
20.0642
 30
0.0
 11
18.7854
 21
20.0436
 31
0.0
  0
LINE
  8
0
 62
     0
 10
18.7854
 20
20.0436
 30
0.0
 11
18.7124
 21
20.0174
 31
0.0
  0
LINE
  8
0
 62
     0
 10
18.7124
 20
20.0174
 30
0.0
 11
18.6407
 21
19.9843
 31
0.0
  0
LINE
  8
0
 62
     0
 10
18.6407
 20
19.9843
 30
0.0
 11
18.5732
 21
19.9457
 31
0.0
  0
LINE
  8
0
 62
     0
 10
18.5732
 20
19.9457
 30
0.0
 11
18.507
 21
19.9016
 31
0.0
  0
LINE
  8
0
 62
     0
 10
18.507
 20
19.9016
 30
0.0
 11
18.4464
 21
19.8534
 31
0.0
  0
LINE
  8
0
 62
     0
 10
18.4464
 20
19.8534
 30
0.0
 11
18.3872
 21
19.7997
 31
0.0
  0
LINE
  8
0
 62
     0
 10
18.3872
 20
19.7997
 30
0.0
 11
18.3348
 21
19.7418
 31
0.0
  0
LINE
  8
0
 62
     0
 10
18.3348
 20
19.7418
 30
0.0
 11
18.2852
 21
19.6812
 31
0.0
  0
LINE
  8
0
 62
     0
 10
18.2852
 20
19.6812
 30
0.0
 11
18.2411
 21
19.615
 31
0.0
  0
LINE
  8
0
 62
     0
 10
18.2411
 20
19.615
 30
0.0
 11
18.2039
 21
19.5475
 31
0.0
  0
LINE
  8
0
 62
     0
 10
18.2039
 20
19.5475
 30
0.0
 11
18.1708
 21
19.4758
 31
0.0
  0
LINE
  8
0
 62
     0
 10
18.1708
 20
19.4758
 30
0.0
 11
18.1433
 21
19.4014
 31
0.0
  0
LINE
  8
0
 62
     0
 10
18.1433
 20
19.4014
 30
0.0
 11
18.1226
 21
19.3256
 31
0.0
  0
LINE
  8
0
 62
     0
 10
18.1226
 20
19.3256
 30
0.0
 11
18.1074
 21
19.2484
 31
0.0
  0
LINE
  8
0
 62
     0
 10
18.1074
 20
19.2484
 30
0.0
 11
18.0978
 21
19.1713
 31
0.0
  0
LINE
  8
0
 62
     0
 10
18.0978
 20
19.1713
 30
0.0
 11
18.095
 21
19.0927
 31
0.0
  0
LINE
  8
0
 62
     0
 10
18.095
 20
19.0927
 30
0.0
 11
18.0978
 21
19.0142
 31
0.0
  0
LINE
  8
0
 62
     0
 10
18.0978
 20
19.0142
 30
0.0
 11
18.1074
 21
18.937
 31
0.0
  0
LINE
  8
0
 62
     0
 10
18.1074
 20
18.937
 30
0.0
 11
18.1226
 21
18.8598
 31
0.0
  0
LINE
  8
0
 62
     0
 10
18.1226
 20
18.8598
 30
0.0
 11
18.1433
 21
18.784
 31
0.0
  0
LINE
  8
0
 62
     0
 10
18.1433
 20
18.784
 30
0.0
 11
18.1708
 21
18.7096
 31
0.0
  0
LINE
  8
0
 62
     0
 10
18.1708
 20
18.7096
 30
0.0
 11
18.2039
 21
18.6393
 31
0.0
  0
LINE
  8
0
 62
     0
 10
18.2039
 20
18.6393
 30
0.0
 11
18.2411
 21
18.5704
 31
0.0
  0
LINE
  8
0
 62
     0
 10
18.2411
 20
18.5704
 30
0.0
 11
18.2852
 21
18.5043
 31
0.0
  0
LINE
  8
0
 62
     0
 10
18.2852
 20
18.5043
 30
0.0
 11
18.3348
 21
18.4437
 31
0.0
  0
LINE
  8
0
 62
     0
 10
18.3348
 20
18.4437
 30
0.0
 11
18.3872
 21
18.3858
 31
0.0
  0
LINE
  8
0
 62
     0
 10
18.3872
 20
18.3858
 30
0.0
 11
18.4464
 21
18.3334
 31
0.0
  0
LINE
  8
0
 62
     0
 10
18.4464
 20
18.3334
 30
0.0
 11
18.507
 21
18.2838
 31
0.0
  0
LINE
  8
0
 62
     0
 10
18.507
 20
18.2838
 30
0.0
 11
18.5732
 21
18.2397
 31
0.0
  0
LINE
  8
0
 62
     0
 10
18.5732
 20
18.2397
 30
0.0
 11
18.6407
 21
18.2025
 31
0.0
  0
LINE
  8
0
 62
     0
 10
18.6407
 20
18.2025
 30
0.0
 11
18.7124
 21
18.1694
 31
0.0
  0
LINE
  8
0
 62
     0
 10
18.7124
 20
18.1694
 30
0.0
 11
18.7854
 21
18.1419
 31
0.0
  0
LINE
  8
0
 62
     0
 10
18.7854
 20
18.1419
 30
0.0
 11
18.8612
 21
18.1212
 31
0.0
  0
LINE
  8
0
 62
     0
 10
18.8612
 20
18.1212
 30
0.0
 11
18.9384
 21
18.1047
 31
0.0
  0
LINE
  8
0
 62
     0
 10
18.9384
 20
18.1047
 30
0.0
 11
19.0169
 21
18.0964
 31
0.0
  0
LINE
  8
0
 62
     0
 10
19.0169
 20
18.0964
 30
0.0
 11
19.0941
 21
18.0923
 31
0.0
  0
LINE
  8
0
 62
     0
 10
19.0941
 20
18.0923
 30
0.0
 11
19.1727
 21
18.0964
 31
0.0
  0
LINE
  8
0
 62
     0
 10
19.1727
 20
18.0964
 30
0.0
 11
19.2512
 21
18.1047
 31
0.0
  0
LINE
  8
0
 62
     0
 10
19.2512
 20
18.1047
 30
0.0
 11
19.3284
 21
18.1212
 31
0.0
  0
LINE
  8
0
 62
     0
 10
19.3284
 20
18.1212
 30
0.0
 11
19.4042
 21
18.1419
 31
0.0
  0
LINE
  8
0
 62
     0
 10
19.4042
 20
18.1419
 30
0.0
 11
19.4772
 21
18.1694
 31
0.0
  0
LINE
  8
0
 62
     0
 10
19.4772
 20
18.1694
 30
0.0
 11
19.5489
 21
18.2025
 31
0.0
  0
LINE
  8
0
 62
     0
 10
19.5489
 20
18.2025
 30
0.0
 11
19.6164
 21
18.2397
 31
0.0
  0
LINE
  8
0
 62
     0
 10
19.6164
 20
18.2397
 30
0.0
 11
19.6825
 21
18.2838
 31
0.0
  0
LINE
  8
0
 62
     0
 10
19.6825
 20
18.2838
 30
0.0
 11
19.7431
 21
18.3334
 31
0.0
  0
LINE
  8
0
 62
     0
 10
19.7431
 20
18.3334
 30
0.0
 11
19.8024
 21
18.3858
 31
0.0
  0
LINE
  8
0
 62
     0
 10
19.8024
 20
18.3858
 30
0.0
 11
19.8548
 21
18.4437
 31
0.0
  0
LINE
  8
0
 62
     0
 10
19.8548
 20
18.4437
 30
0.0
 11
19.9044
 21
18.5043
 31
0.0
  0
LINE
  8
0
 62
     0
 10
19.9044
 20
18.5043
 30
0.0
 11
19.9471
 21
18.5704
 31
0.0
  0
LINE
  8
0
 62
     0
 10
19.9471
 20
18.5704
 30
0.0
 11
19.9857
 21
18.6393
 31
0.0
  0
LINE
  8
0
 62
     0
 10
19.9857
 20
18.6393
 30
0.0
 11
20.0188
 21
18.7096
 31
0.0
  0
LINE
  8
0
 62
     0
 10
20.0188
 20
18.7096
 30
0.0
 11
20.0463
 21
18.784
 31
0.0
  0
LINE
  8
0
 62
     0
 10
20.0463
 20
18.784
 30
0.0
 11
20.067
 21
18.8598
 31
0.0
  0
LINE
  8
0
 62
     0
 10
20.067
 20
18.8598
 30
0.0
 11
20.0822
 21
18.937
 31
0.0
  0
LINE
  8
0
 62
     0
 10
20.0822
 20
18.937
 30
0.0
 11
20.0918
 21
19.0142
 31
0.0
  0
LINE
  8
0
 62
     0
 10
20.0918
 20
19.0142
 30
0.0
 11
20.0945
 21
19.0927
 31
0.0
  0
LINE
  8
0
 62
     0
 10
20.0945
 20
19.0927
 30
0.0
 11
20.0918
 21
19.1713
 31
0.0
  0
LINE
  8
0
 62
     0
 10
20.0918
 20
19.1713
 30
0.0
 11
20.0822
 21
19.2484
 31
0.0
  0
LINE
  8
0
 62
     0
 10
20.0822
 20
19.2484
 30
0.0
 11
20.067
 21
19.3256
 31
0.0
  0
LINE
  8
0
 62
     0
 10
20.067
 20
19.3256
 30
0.0
 11
20.0463
 21
19.4014
 31
0.0
  0
LINE
  8
0
 62
     0
 10
20.0463
 20
19.4014
 30
0.0
 11
20.0188
 21
19.4758
 31
0.0
  0
LINE
  8
0
 62
     0
 10
20.0188
 20
19.4758
 30
0.0
 11
19.9857
 21
19.5475
 31
0.0
  0
LINE
  8
0
 62
     0
 10
19.9857
 20
19.5475
 30
0.0
 11
19.9471
 21
19.615
 31
0.0
  0
LINE
  8
0
 62
     0
 10
19.9471
 20
19.615
 30
0.0
 11
19.9044
 21
19.6812
 31
0.0
  0
LINE
  8
0
 62
     0
 10
19.9044
 20
19.6812
 30
0.0
 11
19.8548
 21
19.7418
 31
0.0
  0
LINE
  8
0
 62
     0
 10
19.8548
 20
19.7418
 30
0.0
 11
19.8024
 21
19.7997
 31
0.0
  0
LINE
  8
0
 62
     0
 10
19.8024
 20
19.7997
 30
0.0
 11
19.7431
 21
19.8534
 31
0.0
  0
LINE
  8
0
 62
     0
 10
19.7431
 20
19.8534
 30
0.0
 11
19.6825
 21
19.9016
 31
0.0
  0
LINE
  8
0
 62
     0
 10
19.6825
 20
19.9016
 30
0.0
 11
19.6164
 21
19.9457
 31
0.0
  0
LINE
  8
0
 62
     0
 10
19.6164
 20
19.9457
 30
0.0
 11
19.5489
 21
19.9843
 31
0.0
  0
LINE
  8
0
 62
     0
 10
19.5489
 20
19.9843
 30
0.0
 11
19.4772
 21
20.0174
 31
0.0
  0
LINE
  8
0
 62
     0
 10
19.4772
 20
20.0174
 30
0.0
 11
19.4042
 21
20.0436
 31
0.0
  0
LINE
  8
0
 62
     0
 10
19.4042
 20
20.0436
 30
0.0
 11
19.3284
 21
20.0642
 31
0.0
  0
LINE
  8
0
 62
     0
 10
19.3284
 20
20.0642
 30
0.0
 11
19.2512
 21
20.0808
 31
0.0
  0
LINE
  8
0
 62
     0
 10
19.2512
 20
20.0808
 30
0.0
 11
19.1727
 21
20.0904
 31
0.0
  0
LINE
  8
0
 62
     0
 10
19.1727
 20
20.0904
 30
0.0
 11
19.0941
 21
20.0932
 31
0.0
  0
LINE
  8
0
 62
     0
 10
19.0941
 20
20.0932
 30
0.0
 11
19.0169
 21
20.0904
 31
0.0
  0
LINE
  8
0
 62
     0
 10
2.59485
 20
35.5935
 30
0.0
 11
16.5943
 21
35.5935
 31
0.0
  0
LINE
  8
0
 62
     0
 10
16.5943
 20
35.5935
 30
0.0
 11
16.5943
 21
21.5925
 31
0.0
  0
LINE
  8
0
 62
     0
 10
16.5943
 20
21.5925
 30
0.0
 11
2.59485
 21
21.5925
 31
0.0
  0
LINE
  8
0
 62
     0
 10
2.59485
 20
21.5925
 30
0.0
 11
2.59485
 21
35.5935
 31
0.0
  0
LINE
  8
0
 62
     0
 10
21.5952
 20
35.5935
 30
0.0
 11
35.5946
 21
35.5935
 31
0.0
  0
LINE
  8
0
 62
     0
 10
35.5946
 20
35.5935
 30
0.0
 11
35.5946
 21
21.5925
 31
0.0
  0
LINE
  8
0
 62
     0
 10
35.5946
 20
21.5925
 30
0.0
 11
21.5952
 21
21.5925
 31
0.0
  0
LINE
  8
0
 62
     0
 10
21.5952
 20
21.5925
 30
0.0
 11
21.5952
 21
35.5935
 31
0.0
  0
LINE
  8
0
 62
     0
 10
40.5941
 20
35.5935
 30
0.0
 11
54.5952
 21
35.5935
 31
0.0
  0
LINE
  8
0
 62
     0
 10
54.5952
 20
35.5935
 30
0.0
 11
54.5952
 21
21.5925
 31
0.0
  0
LINE
  8
0
 62
     0
 10
54.5952
 20
21.5925
 30
0.0
 11
40.5941
 21
21.5925
 31
0.0
  0
LINE
  8
0
 62
     0
 10
40.5941
 20
21.5925
 30
0.0
 11
40.5941
 21
35.5935
 31
0.0
  0
LINE
  8
0
 62
     0
 10
59.5947
 20
35.5935
 30
0.0
 11
73.594
 21
35.5935
 31
0.0
  0
LINE
  8
0
 62
     0
 10
73.594
 20
35.5935
 30
0.0
 11
73.594
 21
21.5925
 31
0.0
  0
LINE
  8
0
 62
     0
 10
73.594
 20
21.5925
 30
0.0
 11
59.5947
 21
21.5925
 31
0.0
  0
LINE
  8
0
 62
     0
 10
59.5947
 20
21.5925
 30
0.0
 11
59.5947
 21
35.5935
 31
0.0
  0
LINE
  8
0
 62
     0
 10
78.595
 20
35.5935
 30
0.0
 11
92.5946
 21
35.5935
 31
0.0
  0
LINE
  8
0
 62
     0
 10
92.5946
 20
35.5935
 30
0.0
 11
92.5946
 21
21.5925
 31
0.0
  0
LINE
  8
0
 62
     0
 10
92.5946
 20
21.5925
 30
0.0
 11
78.595
 21
21.5925
 31
0.0
  0
LINE
  8
0
 62
     0
 10
78.595
 20
21.5925
 30
0.0
 11
78.595
 21
35.5935
 31
0.0
  0
LINE
  8
0
 62
     0
 10
97.5953
 20
35.5935
 30
0.0
 11
111.595
 21
35.5935
 31
0.0
  0
LINE
  8
0
 62
     0
 10
111.595
 20
35.5935
 30
0.0
 11
111.595
 21
21.5925
 31
0.0
  0
LINE
  8
0
 62
     0
 10
111.595
 20
21.5925
 30
0.0
 11
97.5953
 21
21.5925
 31
0.0
  0
LINE
  8
0
 62
     0
 10
97.5953
 20
21.5925
 30
0.0
 11
97.5953
 21
35.5935
 31
0.0
  0
LINE
  8
0
 62
     0
 10
2.59485
 20
54.5924
 30
0.0
 11
16.5943
 21
54.5924
 31
0.0
  0
LINE
  8
0
 62
     0
 10
16.5943
 20
54.5924
 30
0.0
 11
16.5943
 21
40.5927
 31
0.0
  0
LINE
  8
0
 62
     0
 10
16.5943
 20
40.5927
 30
0.0
 11
2.59485
 21
40.5927
 31
0.0
  0
LINE
  8
0
 62
     0
 10
2.59485
 20
40.5927
 30
0.0
 11
2.59485
 21
54.5924
 31
0.0
  0
LINE
  8
0
 62
     0
 10
21.5952
 20
54.5924
 30
0.0
 11
35.5946
 21
54.5924
 31
0.0
  0
LINE
  8
0
 62
     0
 10
35.5946
 20
54.5924
 30
0.0
 11
35.5946
 21
40.5927
 31
0.0
  0
LINE
  8
0
 62
     0
 10
35.5946
 20
40.5927
 30
0.0
 11
21.5952
 21
40.5927
 31
0.0
  0
LINE
  8
0
 62
     0
 10
21.5952
 20
40.5927
 30
0.0
 11
21.5952
 21
54.5924
 31
0.0
  0
LINE
  8
0
 62
     0
 10
40.5941
 20
54.5924
 30
0.0
 11
54.5952
 21
54.5924
 31
0.0
  0
LINE
  8
0
 62
     0
 10
54.5952
 20
54.5924
 30
0.0
 11
54.5952
 21
40.5927
 31
0.0
  0
LINE
  8
0
 62
     0
 10
54.5952
 20
40.5927
 30
0.0
 11
40.5941
 21
40.5927
 31
0.0
  0
LINE
  8
0
 62
     0
 10
40.5941
 20
40.5927
 30
0.0
 11
40.5941
 21
54.5924
 31
0.0
  0
LINE
  8
0
 62
     0
 10
59.5947
 20
54.5924
 30
0.0
 11
73.594
 21
54.5924
 31
0.0
  0
LINE
  8
0
 62
     0
 10
73.594
 20
54.5924
 30
0.0
 11
73.594
 21
40.5927
 31
0.0
  0
LINE
  8
0
 62
     0
 10
73.594
 20
40.5927
 30
0.0
 11
59.5947
 21
40.5927
 31
0.0
  0
LINE
  8
0
 62
     0
 10
59.5947
 20
40.5927
 30
0.0
 11
59.5947
 21
54.5924
 31
0.0
  0
LINE
  8
0
 62
     0
 10
78.595
 20
54.5924
 30
0.0
 11
92.5946
 21
54.5924
 31
0.0
  0
LINE
  8
0
 62
     0
 10
92.5946
 20
54.5924
 30
0.0
 11
92.5946
 21
40.5927
 31
0.0
  0
LINE
  8
0
 62
     0
 10
92.5946
 20
40.5927
 30
0.0
 11
78.595
 21
40.5927
 31
0.0
  0
LINE
  8
0
 62
     0
 10
78.595
 20
40.5927
 30
0.0
 11
78.595
 21
54.5924
 31
0.0
  0
LINE
  8
0
 62
     0
 10
97.5953
 20
54.5924
 30
0.0
 11
111.595
 21
54.5924
 31
0.0
  0
LINE
  8
0
 62
     0
 10
111.595
 20
54.5924
 30
0.0
 11
111.595
 21
40.5927
 31
0.0
  0
LINE
  8
0
 62
     0
 10
111.595
 20
40.5927
 30
0.0
 11
97.5953
 21
40.5927
 31
0.0
  0
LINE
  8
0
 62
     0
 10
97.5953
 20
40.5927
 30
0.0
 11
97.5953
 21
54.5924
 31
0.0
  0
LINE
  8
0
 62
     0
 10
57.0163
 20
58.0898
 30
0.0
 11
56.939
 21
58.0803
 31
0.0
  0
LINE
  8
0
 62
     0
 10
56.939
 20
58.0803
 30
0.0
 11
56.8621
 21
58.0651
 31
0.0
  0
LINE
  8
0
 62
     0
 10
56.8621
 20
58.0651
 30
0.0
 11
56.7863
 21
58.0443
 31
0.0
  0
LINE
  8
0
 62
     0
 10
56.7863
 20
58.0443
 30
0.0
 11
56.7118
 21
58.0168
 31
0.0
  0
LINE
  8
0
 62
     0
 10
56.7118
 20
58.0168
 30
0.0
 11
56.6402
 21
57.9836
 31
0.0
  0
LINE
  8
0
 62
     0
 10
56.6402
 20
57.9836
 30
0.0
 11
56.5725
 21
57.9466
 31
0.0
  0
LINE
  8
0
 62
     0
 10
56.5725
 20
57.9466
 30
0.0
 11
56.5065
 21
57.9025
 31
0.0
  0
LINE
  8
0
 62
     0
 10
56.5065
 20
57.9025
 30
0.0
 11
56.4459
 21
57.8527
 31
0.0
  0
LINE
  8
0
 62
     0
 10
56.4459
 20
57.8527
 30
0.0
 11
56.388
 21
57.8005
 31
0.0
  0
LINE
  8
0
 62
     0
 10
56.388
 20
57.8005
 30
0.0
 11
56.3344
 21
57.7413
 31
0.0
  0
LINE
  8
0
 62
     0
 10
56.3344
 20
57.7413
 30
0.0
 11
56.286
 21
57.6806
 31
0.0
  0
LINE
  8
0
 62
     0
 10
56.286
 20
57.6806
 30
0.0
 11
56.2419
 21
57.6143
 31
0.0
  0
LINE
  8
0
 62
     0
 10
56.2419
 20
57.6143
 30
0.0
 11
56.2031
 21
57.5469
 31
0.0
  0
LINE
  8
0
 62
     0
 10
56.2031
 20
57.5469
 30
0.0
 11
56.1703
 21
57.4753
 31
0.0
  0
LINE
  8
0
 62
     0
 10
56.1703
 20
57.4753
 30
0.0
 11
56.1439
 21
57.4022
 31
0.0
  0
LINE
  8
0
 62
     0
 10
56.1439
 20
57.4022
 30
0.0
 11
56.1234
 21
57.3264
 31
0.0
  0
LINE
  8
0
 62
     0
 10
56.1234
 20
57.3264
 30
0.0
 11
56.1068
 21
57.2491
 31
0.0
  0
LINE
  8
0
 62
     0
 10
56.1068
 20
57.2491
 30
0.0
 11
56.0973
 21
57.1708
 31
0.0
  0
LINE
  8
0
 62
     0
 10
56.0973
 20
57.1708
 30
0.0
 11
56.0945
 21
57.0936
 31
0.0
  0
LINE
  8
0
 62
     0
 10
56.0945
 20
57.0936
 30
0.0
 11
56.0973
 21
57.0149
 31
0.0
  0
LINE
  8
0
 62
     0
 10
56.0973
 20
57.0149
 30
0.0
 11
56.1068
 21
56.9366
 31
0.0
  0
LINE
  8
0
 62
     0
 10
56.1068
 20
56.9366
 30
0.0
 11
56.1234
 21
56.8593
 31
0.0
  0
LINE
  8
0
 62
     0
 10
56.1234
 20
56.8593
 30
0.0
 11
56.1439
 21
56.7835
 31
0.0
  0
LINE
  8
0
 62
     0
 10
56.1439
 20
56.7835
 30
0.0
 11
56.1703
 21
56.7104
 31
0.0
  0
LINE
  8
0
 62
     0
 10
56.1703
 20
56.7104
 30
0.0
 11
56.2031
 21
56.6388
 31
0.0
  0
LINE
  8
0
 62
     0
 10
56.2031
 20
56.6388
 30
0.0
 11
56.2419
 21
56.5711
 31
0.0
  0
LINE
  8
0
 62
     0
 10
56.2419
 20
56.5711
 30
0.0
 11
56.286
 21
56.5051
 31
0.0
  0
LINE
  8
0
 62
     0
 10
56.286
 20
56.5051
 30
0.0
 11
56.3344
 21
56.4444
 31
0.0
  0
LINE
  8
0
 62
     0
 10
56.3344
 20
56.4444
 30
0.0
 11
56.388
 21
56.3852
 31
0.0
  0
LINE
  8
0
 62
     0
 10
56.388
 20
56.3852
 30
0.0
 11
56.4459
 21
56.333
 31
0.0
  0
LINE
  8
0
 62
     0
 10
56.4459
 20
56.333
 30
0.0
 11
56.5065
 21
56.2832
 31
0.0
  0
LINE
  8
0
 62
     0
 10
56.5065
 20
56.2832
 30
0.0
 11
56.5725
 21
56.2405
 31
0.0
  0
LINE
  8
0
 62
     0
 10
56.5725
 20
56.2405
 30
0.0
 11
56.6402
 21
56.2021
 31
0.0
  0
LINE
  8
0
 62
     0
 10
56.6402
 20
56.2021
 30
0.0
 11
56.7118
 21
56.1689
 31
0.0
  0
LINE
  8
0
 62
     0
 10
56.7118
 20
56.1689
 30
0.0
 11
56.7863
 21
56.1414
 31
0.0
  0
LINE
  8
0
 62
     0
 10
56.7863
 20
56.1414
 30
0.0
 11
56.8621
 21
56.1206
 31
0.0
  0
LINE
  8
0
 62
     0
 10
56.8621
 20
56.1206
 30
0.0
 11
56.939
 21
56.1054
 31
0.0
  0
LINE
  8
0
 62
     0
 10
56.939
 20
56.1054
 30
0.0
 11
57.0163
 21
56.0959
 31
0.0
  0
LINE
  8
0
 62
     0
 10
57.0163
 20
56.0959
 30
0.0
 11
57.095
 21
56.0931
 31
0.0
  0
LINE
  8
0
 62
     0
 10
57.095
 20
56.0931
 30
0.0
 11
57.1733
 21
56.0959
 31
0.0
  0
LINE
  8
0
 62
     0
 10
57.1733
 20
56.0959
 30
0.0
 11
57.2505
 21
56.1054
 31
0.0
  0
LINE
  8
0
 62
     0
 10
57.2505
 20
56.1054
 30
0.0
 11
57.3278
 21
56.1206
 31
0.0
  0
LINE
  8
0
 62
     0
 10
57.3278
 20
56.1206
 30
0.0
 11
57.4036
 21
56.1414
 31
0.0
  0
LINE
  8
0
 62
     0
 10
57.4036
 20
56.1414
 30
0.0
 11
57.4781
 21
56.1689
 31
0.0
  0
LINE
  8
0
 62
     0
 10
57.4781
 20
56.1689
 30
0.0
 11
57.5483
 21
56.2021
 31
0.0
  0
LINE
  8
0
 62
     0
 10
57.5483
 20
56.2021
 30
0.0
 11
57.6171
 21
56.2405
 31
0.0
  0
LINE
  8
0
 62
     0
 10
57.6171
 20
56.2405
 30
0.0
 11
57.6834
 21
56.2832
 31
0.0
  0
LINE
  8
0
 62
     0
 10
57.6834
 20
56.2832
 30
0.0
 11
57.7441
 21
56.333
 31
0.0
  0
LINE
  8
0
 62
     0
 10
57.7441
 20
56.333
 30
0.0
 11
57.8019
 21
56.3852
 31
0.0
  0
LINE
  8
0
 62
     0
 10
57.8019
 20
56.3852
 30
0.0
 11
57.8541
 21
56.4444
 31
0.0
  0
LINE
  8
0
 62
     0
 10
57.8541
 20
56.4444
 30
0.0
 11
57.9039
 21
56.5051
 31
0.0
  0
LINE
  8
0
 62
     0
 10
57.9039
 20
56.5051
 30
0.0
 11
57.948
 21
56.5711
 31
0.0
  0
LINE
  8
0
 62
     0
 10
57.948
 20
56.5711
 30
0.0
 11
57.985
 21
56.6388
 31
0.0
  0
LINE
  8
0
 62
     0
 10
57.985
 20
56.6388
 30
0.0
 11
58.0182
 21
56.7104
 31
0.0
  0
LINE
  8
0
 62
     0
 10
58.0182
 20
56.7104
 30
0.0
 11
58.0457
 21
56.7835
 31
0.0
  0
LINE
  8
0
 62
     0
 10
58.0457
 20
56.7835
 30
0.0
 11
58.0665
 21
56.8593
 31
0.0
  0
LINE
  8
0
 62
     0
 10
58.0665
 20
56.8593
 30
0.0
 11
58.0831
 21
56.9366
 31
0.0
  0
LINE
  8
0
 62
     0
 10
58.0831
 20
56.9366
 30
0.0
 11
58.0912
 21
57.0149
 31
0.0
  0
LINE
  8
0
 62
     0
 10
58.0912
 20
57.0149
 30
0.0
 11
58.0954
 21
57.0936
 31
0.0
  0
LINE
  8
0
 62
     0
 10
58.0954
 20
57.0936
 30
0.0
 11
58.0912
 21
57.1708
 31
0.0
  0
LINE
  8
0
 62
     0
 10
58.0912
 20
57.1708
 30
0.0
 11
58.0831
 21
57.2491
 31
0.0
  0
LINE
  8
0
 62
     0
 10
58.0831
 20
57.2491
 30
0.0
 11
58.0665
 21
57.3264
 31
0.0
  0
LINE
  8
0
 62
     0
 10
58.0665
 20
57.3264
 30
0.0
 11
58.0457
 21
57.4022
 31
0.0
  0
LINE
  8
0
 62
     0
 10
58.0457
 20
57.4022
 30
0.0
 11
58.0182
 21
57.4753
 31
0.0
  0
LINE
  8
0
 62
     0
 10
58.0182
 20
57.4753
 30
0.0
 11
57.985
 21
57.5469
 31
0.0
  0
LINE
  8
0
 62
     0
 10
57.985
 20
57.5469
 30
0.0
 11
57.948
 21
57.6143
 31
0.0
  0
LINE
  8
0
 62
     0
 10
57.948
 20
57.6143
 30
0.0
 11
57.9039
 21
57.6806
 31
0.0
  0
LINE
  8
0
 62
     0
 10
57.9039
 20
57.6806
 30
0.0
 11
57.8541
 21
57.7413
 31
0.0
  0
LINE
  8
0
 62
     0
 10
57.8541
 20
57.7413
 30
0.0
 11
57.8019
 21
57.8005
 31
0.0
  0
LINE
  8
0
 62
     0
 10
57.8019
 20
57.8005
 30
0.0
 11
57.7441
 21
57.8527
 31
0.0
  0
LINE
  8
0
 62
     0
 10
57.7441
 20
57.8527
 30
0.0
 11
57.6834
 21
57.9025
 31
0.0
  0
LINE
  8
0
 62
     0
 10
57.6834
 20
57.9025
 30
0.0
 11
57.6171
 21
57.9466
 31
0.0
  0
LINE
  8
0
 62
     0
 10
57.6171
 20
57.9466
 30
0.0
 11
57.5483
 21
57.9836
 31
0.0
  0
LINE
  8
0
 62
     0
 10
57.5483
 20
57.9836
 30
0.0
 11
57.4781
 21
58.0168
 31
0.0
  0
LINE
  8
0
 62
     0
 10
57.4781
 20
58.0168
 30
0.0
 11
57.4036
 21
58.0443
 31
0.0
  0
LINE
  8
0
 62
     0
 10
57.4036
 20
58.0443
 30
0.0
 11
57.3278
 21
58.0651
 31
0.0
  0
LINE
  8
0
 62
     0
 10
57.3278
 20
58.0651
 30
0.0
 11
57.2505
 21
58.0803
 31
0.0
  0
LINE
  8
0
 62
     0
 10
57.2505
 20
58.0803
 30
0.0
 11
57.1733
 21
58.0898
 31
0.0
  0
LINE
  8
0
 62
     0
 10
57.1733
 20
58.0898
 30
0.0
 11
57.095
 21
58.0926
 31
0.0
  0
LINE
  8
0
 62
     0
 10
57.095
 20
58.0926
 30
0.0
 11
57.0163
 21
58.0898
 31
0.0
  0
LINE
  8
0
 62
     0
 10
95.0172
 20
58.0898
 30
0.0
 11
94.9385
 21
58.0803
 31
0.0
  0
LINE
  8
0
 62
     0
 10
94.9385
 20
58.0803
 30
0.0
 11
94.8612
 21
58.0651
 31
0.0
  0
LINE
  8
0
 62
     0
 10
94.8612
 20
58.0651
 30
0.0
 11
94.7857
 21
58.0443
 31
0.0
  0
LINE
  8
0
 62
     0
 10
94.7857
 20
58.0443
 30
0.0
 11
94.7113
 21
58.0168
 31
0.0
  0
LINE
  8
0
 62
     0
 10
94.7113
 20
58.0168
 30
0.0
 11
94.6408
 21
57.9836
 31
0.0
  0
LINE
  8
0
 62
     0
 10
94.6408
 20
57.9836
 30
0.0
 11
94.5734
 21
57.9466
 31
0.0
  0
LINE
  8
0
 62
     0
 10
94.5734
 20
57.9466
 30
0.0
 11
94.5074
 21
57.9025
 31
0.0
  0
LINE
  8
0
 62
     0
 10
94.5074
 20
57.9025
 30
0.0
 11
94.4453
 21
57.8527
 31
0.0
  0
LINE
  8
0
 62
     0
 10
94.4453
 20
57.8527
 30
0.0
 11
94.3875
 21
57.8005
 31
0.0
  0
LINE
  8
0
 62
     0
 10
94.3875
 20
57.8005
 30
0.0
 11
94.3349
 21
57.7413
 31
0.0
  0
LINE
  8
0
 62
     0
 10
94.3349
 20
57.7413
 30
0.0
 11
94.2855
 21
57.6806
 31
0.0
  0
LINE
  8
0
 62
     0
 10
94.2855
 20
57.6806
 30
0.0
 11
94.2414
 21
57.6143
 31
0.0
  0
LINE
  8
0
 62
     0
 10
94.2414
 20
57.6143
 30
0.0
 11
94.204
 21
57.5469
 31
0.0
  0
LINE
  8
0
 62
     0
 10
94.204
 20
57.5469
 30
0.0
 11
94.1709
 21
57.4753
 31
0.0
  0
LINE
  8
0
 62
     0
 10
94.1709
 20
57.4753
 30
0.0
 11
94.1433
 21
57.4022
 31
0.0
  0
LINE
  8
0
 62
     0
 10
94.1433
 20
57.4022
 30
0.0
 11
94.1229
 21
57.3264
 31
0.0
  0
LINE
  8
0
 62
     0
 10
94.1229
 20
57.3264
 30
0.0
 11
94.1063
 21
57.2491
 31
0.0
  0
LINE
  8
0
 62
     0
 10
94.1063
 20
57.2491
 30
0.0
 11
94.0978
 21
57.1708
 31
0.0
  0
LINE
  8
0
 62
     0
 10
94.0978
 20
57.1708
 30
0.0
 11
94.0954
 21
57.0936
 31
0.0
  0
LINE
  8
0
 62
     0
 10
94.0954
 20
57.0936
 30
0.0
 11
94.0978
 21
57.0149
 31
0.0
  0
LINE
  8
0
 62
     0
 10
94.0978
 20
57.0149
 30
0.0
 11
94.1063
 21
56.9366
 31
0.0
  0
LINE
  8
0
 62
     0
 10
94.1063
 20
56.9366
 30
0.0
 11
94.1229
 21
56.8593
 31
0.0
  0
LINE
  8
0
 62
     0
 10
94.1229
 20
56.8593
 30
0.0
 11
94.1433
 21
56.7835
 31
0.0
  0
LINE
  8
0
 62
     0
 10
94.1433
 20
56.7835
 30
0.0
 11
94.1709
 21
56.7104
 31
0.0
  0
LINE
  8
0
 62
     0
 10
94.1709
 20
56.7104
 30
0.0
 11
94.204
 21
56.6388
 31
0.0
  0
LINE
  8
0
 62
     0
 10
94.204
 20
56.6388
 30
0.0
 11
94.2414
 21
56.5711
 31
0.0
  0
LINE
  8
0
 62
     0
 10
94.2414
 20
56.5711
 30
0.0
 11
94.2855
 21
56.5051
 31
0.0
  0
LINE
  8
0
 62
     0
 10
94.2855
 20
56.5051
 30
0.0
 11
94.3349
 21
56.4444
 31
0.0
  0
LINE
  8
0
 62
     0
 10
94.3349
 20
56.4444
 30
0.0
 11
94.3875
 21
56.3852
 31
0.0
  0
LINE
  8
0
 62
     0
 10
94.3875
 20
56.3852
 30
0.0
 11
94.4453
 21
56.333
 31
0.0
  0
LINE
  8
0
 62
     0
 10
94.4453
 20
56.333
 30
0.0
 11
94.5074
 21
56.2832
 31
0.0
  0
LINE
  8
0
 62
     0
 10
94.5074
 20
56.2832
 30
0.0
 11
94.5734
 21
56.2405
 31
0.0
  0
LINE
  8
0
 62
     0
 10
94.5734
 20
56.2405
 30
0.0
 11
94.6408
 21
56.2021
 31
0.0
  0
LINE
  8
0
 62
     0
 10
94.6408
 20
56.2021
 30
0.0
 11
94.7113
 21
56.1689
 31
0.0
  0
LINE
  8
0
 62
     0
 10
94.7113
 20
56.1689
 30
0.0
 11
94.7857
 21
56.1414
 31
0.0
  0
LINE
  8
0
 62
     0
 10
94.7857
 20
56.1414
 30
0.0
 11
94.8612
 21
56.1206
 31
0.0
  0
LINE
  8
0
 62
     0
 10
94.8612
 20
56.1206
 30
0.0
 11
94.9385
 21
56.1054
 31
0.0
  0
LINE
  8
0
 62
     0
 10
94.9385
 20
56.1054
 30
0.0
 11
95.0172
 21
56.0959
 31
0.0
  0
LINE
  8
0
 62
     0
 10
95.0172
 20
56.0959
 30
0.0
 11
95.0944
 21
56.0931
 31
0.0
  0
LINE
  8
0
 62
     0
 10
95.0944
 20
56.0931
 30
0.0
 11
95.1727
 21
56.0959
 31
0.0
  0
LINE
  8
0
 62
     0
 10
95.1727
 20
56.0959
 30
0.0
 11
95.2514
 21
56.1054
 31
0.0
  0
LINE
  8
0
 62
     0
 10
95.2514
 20
56.1054
 30
0.0
 11
95.3273
 21
56.1206
 31
0.0
  0
LINE
  8
0
 62
     0
 10
95.3273
 20
56.1206
 30
0.0
 11
95.4045
 21
56.1414
 31
0.0
  0
LINE
  8
0
 62
     0
 10
95.4045
 20
56.1414
 30
0.0
 11
95.4775
 21
56.1689
 31
0.0
  0
LINE
  8
0
 62
     0
 10
95.4775
 20
56.1689
 30
0.0
 11
95.5492
 21
56.2021
 31
0.0
  0
LINE
  8
0
 62
     0
 10
95.5492
 20
56.2021
 30
0.0
 11
95.6165
 21
56.2405
 31
0.0
  0
LINE
  8
0
 62
     0
 10
95.6165
 20
56.2405
 30
0.0
 11
95.6829
 21
56.2832
 31
0.0
  0
LINE
  8
0
 62
     0
 10
95.6829
 20
56.2832
 30
0.0
 11
95.7432
 21
56.333
 31
0.0
  0
LINE
  8
0
 62
     0
 10
95.7432
 20
56.333
 30
0.0
 11
95.8014
 21
56.3852
 31
0.0
  0
LINE
  8
0
 62
     0
 10
95.8014
 20
56.3852
 30
0.0
 11
95.855
 21
56.4444
 31
0.0
  0
LINE
  8
0
 62
     0
 10
95.855
 20
56.4444
 30
0.0
 11
95.9033
 21
56.5051
 31
0.0
  0
LINE
  8
0
 62
     0
 10
95.9033
 20
56.5051
 30
0.0
 11
95.9474
 21
56.5711
 31
0.0
  0
LINE
  8
0
 62
     0
 10
95.9474
 20
56.5711
 30
0.0
 11
95.9859
 21
56.6388
 31
0.0
  0
LINE
  8
0
 62
     0
 10
95.9859
 20
56.6388
 30
0.0
 11
96.0191
 21
56.7104
 31
0.0
  0
LINE
  8
0
 62
     0
 10
96.0191
 20
56.7104
 30
0.0
 11
96.0452
 21
56.7835
 31
0.0
  0
LINE
  8
0
 62
     0
 10
96.0452
 20
56.7835
 30
0.0
 11
96.067
 21
56.8593
 31
0.0
  0
LINE
  8
0
 62
     0
 10
96.067
 20
56.8593
 30
0.0
 11
96.0822
 21
56.9366
 31
0.0
  0
LINE
  8
0
 62
     0
 10
96.0822
 20
56.9366
 30
0.0
 11
96.0921
 21
57.0149
 31
0.0
  0
LINE
  8
0
 62
     0
 10
96.0921
 20
57.0149
 30
0.0
 11
96.0949
 21
57.0936
 31
0.0
  0
LINE
  8
0
 62
     0
 10
96.0949
 20
57.0936
 30
0.0
 11
96.0921
 21
57.1708
 31
0.0
  0
LINE
  8
0
 62
     0
 10
96.0921
 20
57.1708
 30
0.0
 11
96.0822
 21
57.2491
 31
0.0
  0
LINE
  8
0
 62
     0
 10
96.0822
 20
57.2491
 30
0.0
 11
96.067
 21
57.3264
 31
0.0
  0
LINE
  8
0
 62
     0
 10
96.067
 20
57.3264
 30
0.0
 11
96.0452
 21
57.4022
 31
0.0
  0
LINE
  8
0
 62
     0
 10
96.0452
 20
57.4022
 30
0.0
 11
96.0191
 21
57.4753
 31
0.0
  0
LINE
  8
0
 62
     0
 10
96.0191
 20
57.4753
 30
0.0
 11
95.9859
 21
57.5469
 31
0.0
  0
LINE
  8
0
 62
     0
 10
95.9859
 20
57.5469
 30
0.0
 11
95.9474
 21
57.6143
 31
0.0
  0
LINE
  8
0
 62
     0
 10
95.9474
 20
57.6143
 30
0.0
 11
95.9033
 21
57.6806
 31
0.0
  0
LINE
  8
0
 62
     0
 10
95.9033
 20
57.6806
 30
0.0
 11
95.855
 21
57.7413
 31
0.0
  0
LINE
  8
0
 62
     0
 10
95.855
 20
57.7413
 30
0.0
 11
95.8014
 21
57.8005
 31
0.0
  0
LINE
  8
0
 62
     0
 10
95.8014
 20
57.8005
 30
0.0
 11
95.7432
 21
57.8527
 31
0.0
  0
LINE
  8
0
 62
     0
 10
95.7432
 20
57.8527
 30
0.0
 11
95.6829
 21
57.9025
 31
0.0
  0
LINE
  8
0
 62
     0
 10
95.6829
 20
57.9025
 30
0.0
 11
95.6165
 21
57.9466
 31
0.0
  0
LINE
  8
0
 62
     0
 10
95.6165
 20
57.9466
 30
0.0
 11
95.5492
 21
57.9836
 31
0.0
  0
LINE
  8
0
 62
     0
 10
95.5492
 20
57.9836
 30
0.0
 11
95.4775
 21
58.0168
 31
0.0
  0
LINE
  8
0
 62
     0
 10
95.4775
 20
58.0168
 30
0.0
 11
95.4045
 21
58.0443
 31
0.0
  0
LINE
  8
0
 62
     0
 10
95.4045
 20
58.0443
 30
0.0
 11
95.3273
 21
58.0651
 31
0.0
  0
LINE
  8
0
 62
     0
 10
95.3273
 20
58.0651
 30
0.0
 11
95.2514
 21
58.0803
 31
0.0
  0
LINE
  8
0
 62
     0
 10
95.2514
 20
58.0803
 30
0.0
 11
95.1727
 21
58.0898
 31
0.0
  0
LINE
  8
0
 62
     0
 10
95.1727
 20
58.0898
 30
0.0
 11
95.0944
 21
58.0926
 31
0.0
  0
LINE
  8
0
 62
     0
 10
95.0944
 20
58.0926
 30
0.0
 11
95.0172
 21
58.0898
 31
0.0
  0
LINE
  8
0
 62
     0
 10
19.0169
 20
58.0898
 30
0.0
 11
18.9384
 21
58.0803
 31
0.0
  0
LINE
  8
0
 62
     0
 10
18.9384
 20
58.0803
 30
0.0
 11
18.8612
 21
58.0651
 31
0.0
  0
LINE
  8
0
 62
     0
 10
18.8612
 20
58.0651
 30
0.0
 11
18.7854
 21
58.0443
 31
0.0
  0
LINE
  8
0
 62
     0
 10
18.7854
 20
58.0443
 30
0.0
 11
18.7124
 21
58.0168
 31
0.0
  0
LINE
  8
0
 62
     0
 10
18.7124
 20
58.0168
 30
0.0
 11
18.6407
 21
57.9836
 31
0.0
  0
LINE
  8
0
 62
     0
 10
18.6407
 20
57.9836
 30
0.0
 11
18.5732
 21
57.9466
 31
0.0
  0
LINE
  8
0
 62
     0
 10
18.5732
 20
57.9466
 30
0.0
 11
18.507
 21
57.9025
 31
0.0
  0
LINE
  8
0
 62
     0
 10
18.507
 20
57.9025
 30
0.0
 11
18.4464
 21
57.8527
 31
0.0
  0
LINE
  8
0
 62
     0
 10
18.4464
 20
57.8527
 30
0.0
 11
18.3872
 21
57.8005
 31
0.0
  0
LINE
  8
0
 62
     0
 10
18.3872
 20
57.8005
 30
0.0
 11
18.3348
 21
57.7413
 31
0.0
  0
LINE
  8
0
 62
     0
 10
18.3348
 20
57.7413
 30
0.0
 11
18.2852
 21
57.6806
 31
0.0
  0
LINE
  8
0
 62
     0
 10
18.2852
 20
57.6806
 30
0.0
 11
18.2411
 21
57.6143
 31
0.0
  0
LINE
  8
0
 62
     0
 10
18.2411
 20
57.6143
 30
0.0
 11
18.2039
 21
57.5469
 31
0.0
  0
LINE
  8
0
 62
     0
 10
18.2039
 20
57.5469
 30
0.0
 11
18.1708
 21
57.4753
 31
0.0
  0
LINE
  8
0
 62
     0
 10
18.1708
 20
57.4753
 30
0.0
 11
18.1433
 21
57.4022
 31
0.0
  0
LINE
  8
0
 62
     0
 10
18.1433
 20
57.4022
 30
0.0
 11
18.1226
 21
57.3264
 31
0.0
  0
LINE
  8
0
 62
     0
 10
18.1226
 20
57.3264
 30
0.0
 11
18.1074
 21
57.2491
 31
0.0
  0
LINE
  8
0
 62
     0
 10
18.1074
 20
57.2491
 30
0.0
 11
18.0978
 21
57.1708
 31
0.0
  0
LINE
  8
0
 62
     0
 10
18.0978
 20
57.1708
 30
0.0
 11
18.095
 21
57.0936
 31
0.0
  0
LINE
  8
0
 62
     0
 10
18.095
 20
57.0936
 30
0.0
 11
18.0978
 21
57.0149
 31
0.0
  0
LINE
  8
0
 62
     0
 10
18.0978
 20
57.0149
 30
0.0
 11
18.1074
 21
56.9366
 31
0.0
  0
LINE
  8
0
 62
     0
 10
18.1074
 20
56.9366
 30
0.0
 11
18.1226
 21
56.8593
 31
0.0
  0
LINE
  8
0
 62
     0
 10
18.1226
 20
56.8593
 30
0.0
 11
18.1433
 21
56.7835
 31
0.0
  0
LINE
  8
0
 62
     0
 10
18.1433
 20
56.7835
 30
0.0
 11
18.1708
 21
56.7104
 31
0.0
  0
LINE
  8
0
 62
     0
 10
18.1708
 20
56.7104
 30
0.0
 11
18.2039
 21
56.6388
 31
0.0
  0
LINE
  8
0
 62
     0
 10
18.2039
 20
56.6388
 30
0.0
 11
18.2411
 21
56.5711
 31
0.0
  0
LINE
  8
0
 62
     0
 10
18.2411
 20
56.5711
 30
0.0
 11
18.2852
 21
56.5051
 31
0.0
  0
LINE
  8
0
 62
     0
 10
18.2852
 20
56.5051
 30
0.0
 11
18.3348
 21
56.4444
 31
0.0
  0
LINE
  8
0
 62
     0
 10
18.3348
 20
56.4444
 30
0.0
 11
18.3872
 21
56.3852
 31
0.0
  0
LINE
  8
0
 62
     0
 10
18.3872
 20
56.3852
 30
0.0
 11
18.4464
 21
56.333
 31
0.0
  0
LINE
  8
0
 62
     0
 10
18.4464
 20
56.333
 30
0.0
 11
18.507
 21
56.2832
 31
0.0
  0
LINE
  8
0
 62
     0
 10
18.507
 20
56.2832
 30
0.0
 11
18.5732
 21
56.2405
 31
0.0
  0
LINE
  8
0
 62
     0
 10
18.5732
 20
56.2405
 30
0.0
 11
18.6407
 21
56.2021
 31
0.0
  0
LINE
  8
0
 62
     0
 10
18.6407
 20
56.2021
 30
0.0
 11
18.7124
 21
56.1689
 31
0.0
  0
LINE
  8
0
 62
     0
 10
18.7124
 20
56.1689
 30
0.0
 11
18.7854
 21
56.1414
 31
0.0
  0
LINE
  8
0
 62
     0
 10
18.7854
 20
56.1414
 30
0.0
 11
18.8612
 21
56.1206
 31
0.0
  0
LINE
  8
0
 62
     0
 10
18.8612
 20
56.1206
 30
0.0
 11
18.9384
 21
56.1054
 31
0.0
  0
LINE
  8
0
 62
     0
 10
18.9384
 20
56.1054
 30
0.0
 11
19.0169
 21
56.0959
 31
0.0
  0
LINE
  8
0
 62
     0
 10
19.0169
 20
56.0959
 30
0.0
 11
19.0941
 21
56.0931
 31
0.0
  0
LINE
  8
0
 62
     0
 10
19.0941
 20
56.0931
 30
0.0
 11
19.1727
 21
56.0959
 31
0.0
  0
LINE
  8
0
 62
     0
 10
19.1727
 20
56.0959
 30
0.0
 11
19.2512
 21
56.1054
 31
0.0
  0
LINE
  8
0
 62
     0
 10
19.2512
 20
56.1054
 30
0.0
 11
19.3284
 21
56.1206
 31
0.0
  0
LINE
  8
0
 62
     0
 10
19.3284
 20
56.1206
 30
0.0
 11
19.4042
 21
56.1414
 31
0.0
  0
LINE
  8
0
 62
     0
 10
19.4042
 20
56.1414
 30
0.0
 11
19.4772
 21
56.1689
 31
0.0
  0
LINE
  8
0
 62
     0
 10
19.4772
 20
56.1689
 30
0.0
 11
19.5489
 21
56.2021
 31
0.0
  0
LINE
  8
0
 62
     0
 10
19.5489
 20
56.2021
 30
0.0
 11
19.6164
 21
56.2405
 31
0.0
  0
LINE
  8
0
 62
     0
 10
19.6164
 20
56.2405
 30
0.0
 11
19.6825
 21
56.2832
 31
0.0
  0
LINE
  8
0
 62
     0
 10
19.6825
 20
56.2832
 30
0.0
 11
19.7431
 21
56.333
 31
0.0
  0
LINE
  8
0
 62
     0
 10
19.7431
 20
56.333
 30
0.0
 11
19.8024
 21
56.3852
 31
0.0
  0
LINE
  8
0
 62
     0
 10
19.8024
 20
56.3852
 30
0.0
 11
19.8548
 21
56.4444
 31
0.0
  0
LINE
  8
0
 62
     0
 10
19.8548
 20
56.4444
 30
0.0
 11
19.9044
 21
56.5051
 31
0.0
  0
LINE
  8
0
 62
     0
 10
19.9044
 20
56.5051
 30
0.0
 11
19.9471
 21
56.5711
 31
0.0
  0
LINE
  8
0
 62
     0
 10
19.9471
 20
56.5711
 30
0.0
 11
19.9857
 21
56.6388
 31
0.0
  0
LINE
  8
0
 62
     0
 10
19.9857
 20
56.6388
 30
0.0
 11
20.0188
 21
56.7104
 31
0.0
  0
LINE
  8
0
 62
     0
 10
20.0188
 20
56.7104
 30
0.0
 11
20.0463
 21
56.7835
 31
0.0
  0
LINE
  8
0
 62
     0
 10
20.0463
 20
56.7835
 30
0.0
 11
20.067
 21
56.8593
 31
0.0
  0
LINE
  8
0
 62
     0
 10
20.067
 20
56.8593
 30
0.0
 11
20.0822
 21
56.9366
 31
0.0
  0
LINE
  8
0
 62
     0
 10
20.0822
 20
56.9366
 30
0.0
 11
20.0918
 21
57.0149
 31
0.0
  0
LINE
  8
0
 62
     0
 10
20.0918
 20
57.0149
 30
0.0
 11
20.0945
 21
57.0936
 31
0.0
  0
LINE
  8
0
 62
     0
 10
20.0945
 20
57.0936
 30
0.0
 11
20.0918
 21
57.1708
 31
0.0
  0
LINE
  8
0
 62
     0
 10
20.0918
 20
57.1708
 30
0.0
 11
20.0822
 21
57.2491
 31
0.0
  0
LINE
  8
0
 62
     0
 10
20.0822
 20
57.2491
 30
0.0
 11
20.067
 21
57.3264
 31
0.0
  0
LINE
  8
0
 62
     0
 10
20.067
 20
57.3264
 30
0.0
 11
20.0463
 21
57.4022
 31
0.0
  0
LINE
  8
0
 62
     0
 10
20.0463
 20
57.4022
 30
0.0
 11
20.0188
 21
57.4753
 31
0.0
  0
LINE
  8
0
 62
     0
 10
20.0188
 20
57.4753
 30
0.0
 11
19.9857
 21
57.5469
 31
0.0
  0
LINE
  8
0
 62
     0
 10
19.9857
 20
57.5469
 30
0.0
 11
19.9471
 21
57.6143
 31
0.0
  0
LINE
  8
0
 62
     0
 10
19.9471
 20
57.6143
 30
0.0
 11
19.9044
 21
57.6806
 31
0.0
  0
LINE
  8
0
 62
     0
 10
19.9044
 20
57.6806
 30
0.0
 11
19.8548
 21
57.7413
 31
0.0
  0
LINE
  8
0
 62
     0
 10
19.8548
 20
57.7413
 30
0.0
 11
19.8024
 21
57.8005
 31
0.0
  0
LINE
  8
0
 62
     0
 10
19.8024
 20
57.8005
 30
0.0
 11
19.7431
 21
57.8527
 31
0.0
  0
LINE
  8
0
 62
     0
 10
19.7431
 20
57.8527
 30
0.0
 11
19.6825
 21
57.9025
 31
0.0
  0
LINE
  8
0
 62
     0
 10
19.6825
 20
57.9025
 30
0.0
 11
19.6164
 21
57.9466
 31
0.0
  0
LINE
  8
0
 62
     0
 10
19.6164
 20
57.9466
 30
0.0
 11
19.5489
 21
57.9836
 31
0.0
  0
LINE
  8
0
 62
     0
 10
19.5489
 20
57.9836
 30
0.0
 11
19.4772
 21
58.0168
 31
0.0
  0
LINE
  8
0
 62
     0
 10
19.4772
 20
58.0168
 30
0.0
 11
19.4042
 21
58.0443
 31
0.0
  0
LINE
  8
0
 62
     0
 10
19.4042
 20
58.0443
 30
0.0
 11
19.3284
 21
58.0651
 31
0.0
  0
LINE
  8
0
 62
     0
 10
19.3284
 20
58.0651
 30
0.0
 11
19.2512
 21
58.0803
 31
0.0
  0
LINE
  8
0
 62
     0
 10
19.2512
 20
58.0803
 30
0.0
 11
19.1727
 21
58.0898
 31
0.0
  0
LINE
  8
0
 62
     0
 10
19.1727
 20
58.0898
 30
0.0
 11
19.0941
 21
58.0926
 31
0.0
  0
LINE
  8
0
 62
     0
 10
19.0941
 20
58.0926
 30
0.0
 11
19.0169
 21
58.0898
 31
0.0
  0
LINE
  8
0
 62
     0
 10
2.59485
 20
73.5926
 30
0.0
 11
16.5943
 21
73.5926
 31
0.0
  0
LINE
  8
0
 62
     0
 10
16.5943
 20
73.5926
 30
0.0
 11
16.5943
 21
59.5933
 31
0.0
  0
LINE
  8
0
 62
     0
 10
16.5943
 20
59.5933
 30
0.0
 11
2.59485
 21
59.5933
 31
0.0
  0
LINE
  8
0
 62
     0
 10
2.59485
 20
59.5933
 30
0.0
 11
2.59485
 21
73.5926
 31
0.0
  0
LINE
  8
0
 62
     0
 10
21.5952
 20
73.5926
 30
0.0
 11
35.5946
 21
73.5926
 31
0.0
  0
LINE
  8
0
 62
     0
 10
35.5946
 20
73.5926
 30
0.0
 11
35.5946
 21
59.5933
 31
0.0
  0
LINE
  8
0
 62
     0
 10
35.5946
 20
59.5933
 30
0.0
 11
21.5952
 21
59.5933
 31
0.0
  0
LINE
  8
0
 62
     0
 10
21.5952
 20
59.5933
 30
0.0
 11
21.5952
 21
73.5926
 31
0.0
  0
LINE
  8
0
 62
     0
 10
40.5941
 20
73.5926
 30
0.0
 11
54.5952
 21
73.5926
 31
0.0
  0
LINE
  8
0
 62
     0
 10
54.5952
 20
73.5926
 30
0.0
 11
54.5952
 21
59.5933
 31
0.0
  0
LINE
  8
0
 62
     0
 10
54.5952
 20
59.5933
 30
0.0
 11
40.5941
 21
59.5933
 31
0.0
  0
LINE
  8
0
 62
     0
 10
40.5941
 20
59.5933
 30
0.0
 11
40.5941
 21
73.5926
 31
0.0
  0
LINE
  8
0
 62
     0
 10
59.5947
 20
73.5926
 30
0.0
 11
73.594
 21
73.5926
 31
0.0
  0
LINE
  8
0
 62
     0
 10
73.594
 20
73.5926
 30
0.0
 11
73.594
 21
59.5933
 31
0.0
  0
LINE
  8
0
 62
     0
 10
73.594
 20
59.5933
 30
0.0
 11
59.5947
 21
59.5933
 31
0.0
  0
LINE
  8
0
 62
     0
 10
59.5947
 20
59.5933
 30
0.0
 11
59.5947
 21
73.5926
 31
0.0
  0
LINE
  8
0
 62
     0
 10
78.595
 20
73.5926
 30
0.0
 11
92.5946
 21
73.5926
 31
0.0
  0
LINE
  8
0
 62
     0
 10
92.5946
 20
73.5926
 30
0.0
 11
92.5946
 21
59.5933
 31
0.0
  0
LINE
  8
0
 62
     0
 10
92.5946
 20
59.5933
 30
0.0
 11
78.595
 21
59.5933
 31
0.0
  0
LINE
  8
0
 62
     0
 10
78.595
 20
59.5933
 30
0.0
 11
78.595
 21
73.5926
 31
0.0
  0
LINE
  8
0
 62
     0
 10
97.5953
 20
73.5926
 30
0.0
 11
111.595
 21
73.5926
 31
0.0
  0
LINE
  8
0
 62
     0
 10
111.595
 20
73.5926
 30
0.0
 11
111.595
 21
59.5933
 31
0.0
  0
LINE
  8
0
 62
     0
 10
111.595
 20
59.5933
 30
0.0
 11
97.5953
 21
59.5933
 31
0.0
  0
LINE
  8
0
 62
     0
 10
97.5953
 20
59.5933
 30
0.0
 11
97.5953
 21
73.5926
 31
0.0
  0
ENDSEC
  0
EOF
