<?xml version="1.0" encoding="UTF-8" standalone="no"?>
<svg
   xmlns:dc="http://purl.org/dc/elements/1.1/"
   xmlns:cc="http://creativecommons.org/ns#"
   xmlns:rdf="http://www.w3.org/1999/02/22-rdf-syntax-ns#"
   xmlns:svg="http://www.w3.org/2000/svg"
   xmlns="http://www.w3.org/2000/svg"
   xmlns:sodipodi="http://sodipodi.sourceforge.net/DTD/sodipodi-0.dtd"
   xmlns:inkscape="http://www.inkscape.org/namespaces/inkscape"
   width="120.972mm"
   height="82.972mm"
   viewBox="0 0 120.972 82.972"
   version="1.1"
   id="svg42"
   sodipodi:docname="swtich mounting plate laser cut size.svg"
   inkscape:version="0.92.4 (unknown)">
  <metadata
     id="metadata48">
    <rdf:RDF>
      <cc:Work
         rdf:about="">
        <dc:format>image/svg+xml</dc:format>
        <dc:type
           rdf:resource="http://purl.org/dc/dcmitype/StillImage" />
      </cc:Work>
    </rdf:RDF>
  </metadata>
  <defs
     id="defs46" />
  <sodipodi:namedview
     pagecolor="#ffffff"
     bordercolor="#666666"
     borderopacity="1"
     objecttolerance="10"
     gridtolerance="10"
     guidetolerance="10"
     inkscape:pageopacity="0"
     inkscape:pageshadow="2"
     inkscape:window-width="1366"
     inkscape:window-height="714"
     id="namedview44"
     showgrid="false"
     inkscape:zoom="1"
     inkscape:cx="126.32203"
     inkscape:cy="224.28339"
     inkscape:window-x="0"
     inkscape:window-y="25"
     inkscape:window-maximized="1"
     inkscape:current-layer="Sketch" />
  <g
     id="Sketch"
     transform="translate(6.186000,19.786000) scale(1,-1)">
    <path
       id="Sketch_w0000"
       d="M 0.0 0.0 L 13.6 0.0 L 13.6 13.6 L 0.0 13.6 L 0.0 0.0 "
       style="stroke-width:0.1;stroke-miterlimit:4;stroke-dasharray:none;fill:none;fill-rule:evenodd;stroke:#0000ff;stroke-opacity:1"
       stroke-width="0.35 px"
       stroke="#000000" />
    <path
       id="Sketch_w0001"
       d="M 19.0 0.0 L 32.6 0.0 L 32.6 13.6 L 19.0 13.6 L 19.0 0.0 "
       style="stroke-width:0.1;stroke-miterlimit:4;stroke-dasharray:none;fill:none;fill-rule:evenodd;stroke:#0000ff;stroke-opacity:1"
       stroke-width="0.35 px"
       stroke="#000000" />
    <path
       id="Sketch_w0002"
       d="M 38.0 0.0 L 51.6 0.0 L 51.6 13.6 L 38.0 13.6 L 38.0 0.0 "
       style="stroke-width:0.1;stroke-miterlimit:4;stroke-dasharray:none;fill:none;fill-rule:evenodd;stroke:#0000ff;stroke-opacity:1"
       stroke-width="0.35 px"
       stroke="#000000" />
    <path
       id="Sketch_w0003"
       d="M 57.0 0.0 L 70.6 0.0 L 70.6 13.6 L 57.0 13.6 L 57.0 0.0 "
       style="stroke-width:0.1;stroke-miterlimit:4;stroke-dasharray:none;fill:none;fill-rule:evenodd;stroke:#0000ff;stroke-opacity:1"
       stroke-width="0.35 px"
       stroke="#000000" />
    <path
       id="Sketch_w0004"
       d="M 76.0 0.0 L 89.6 0.0 L 89.6 13.6 L 76.0 13.6 L 76.0 0.0 "
       style="stroke-width:0.1;stroke-miterlimit:4;stroke-dasharray:none;fill:none;fill-rule:evenodd;stroke:#0000ff;stroke-opacity:1"
       stroke-width="0.35 px"
       stroke="#000000" />
    <path
       id="Sketch_w0005"
       d="M 95.0 0.0 L 108.6 0.0 L 108.6 13.6 L 95.0 13.6 L 95.0 0.0 "
       style="stroke-width:0.1;stroke-miterlimit:4;stroke-dasharray:none;fill:none;fill-rule:evenodd;stroke:#0000ff;stroke-opacity:1"
       stroke-width="0.35 px"
       stroke="#000000" />
    <path
       id="Sketch_w0006"
       d="M -1.91900863365e-32 -19.0 L 13.6 -19.0 L 13.6 -5.4 L 0.0 -5.4 L -1.91900863365e-32 -19.0 "
       style="stroke-width:0.1;stroke-miterlimit:4;stroke-dasharray:none;fill:none;fill-rule:evenodd;stroke:#0000ff;stroke-opacity:1"
       stroke-width="0.35 px"
       stroke="#000000" />
    <path
       id="Sketch_w0007"
       d="M 19.0 -19.0 L 32.6 -19.0 L 32.6 -5.4 L 19.0 -5.4 L 19.0 -19.0 "
       style="stroke-width:0.1;stroke-miterlimit:4;stroke-dasharray:none;fill:none;fill-rule:evenodd;stroke:#0000ff;stroke-opacity:1"
       stroke-width="0.35 px"
       stroke="#000000" />
    <path
       id="Sketch_w0008"
       d="M 38.0 -19.0 L 51.6 -19.0 L 51.6 -5.4 L 38.0 -5.4 L 38.0 -19.0 "
       style="stroke-width:0.1;stroke-miterlimit:4;stroke-dasharray:none;fill:none;fill-rule:evenodd;stroke:#0000ff;stroke-opacity:1"
       stroke-width="0.35 px"
       stroke="#000000" />
    <path
       id="Sketch_w0009"
       d="M 57.0 -19.0 L 70.6 -19.0 L 70.6 -5.4 L 57.0 -5.4 L 57.0 -19.0 "
       style="stroke-width:0.1;stroke-miterlimit:4;stroke-dasharray:none;fill:none;fill-rule:evenodd;stroke:#0000ff;stroke-opacity:1"
       stroke-width="0.35 px"
       stroke="#000000" />
    <path
       id="Sketch_w0010"
       d="M 76.0 -19.0 L 89.6 -19.0 L 89.6 -5.4 L 76.0 -5.4 L 76.0 -19.0 "
       style="stroke-width:0.1;stroke-miterlimit:4;stroke-dasharray:none;fill:none;fill-rule:evenodd;stroke:#0000ff;stroke-opacity:1"
       stroke-width="0.35 px"
       stroke="#000000" />
    <path
       id="Sketch_w0011"
       d="M 95.0 -19.0 L 108.6 -19.0 L 108.6 -5.4 L 95.0 -5.4 L 95.0 -19.0 "
       style="stroke-width:0.1;stroke-miterlimit:4;stroke-dasharray:none;fill:none;fill-rule:evenodd;stroke:#0000ff;stroke-opacity:1"
       stroke-width="0.35 px"
       stroke="#000000" />
    <path
       id="Sketch_w0012"
       d="M 3.94430452611e-31 -38.0 L 13.6 -38.0 L 13.6 -24.4 L 0.0 -24.4 L 3.94430452611e-31 -38.0 "
       style="stroke-width:0.1;stroke-miterlimit:4;stroke-dasharray:none;fill:none;fill-rule:evenodd;stroke:#0000ff;stroke-opacity:1"
       stroke-width="0.35 px"
       stroke="#000000" />
    <path
       id="Sketch_w0013"
       d="M 19.0 -38.0 L 32.6 -38.0 L 32.6 -24.4 L 19.0 -24.4 L 19.0 -38.0 "
       style="stroke-width:0.1;stroke-miterlimit:4;stroke-dasharray:none;fill:none;fill-rule:evenodd;stroke:#0000ff;stroke-opacity:1"
       stroke-width="0.35 px"
       stroke="#000000" />
    <path
       id="Sketch_w0014"
       d="M 38.0 -38.0 L 51.6 -38.0 L 51.6 -24.4 L 38.0 -24.4 L 38.0 -38.0 "
       style="stroke-width:0.1;stroke-miterlimit:4;stroke-dasharray:none;fill:none;fill-rule:evenodd;stroke:#0000ff;stroke-opacity:1"
       stroke-width="0.35 px"
       stroke="#000000" />
    <path
       id="Sketch_w0015"
       d="M 57.0 -38.0 L 70.6 -38.0 L 70.6 -24.4 L 57.0 -24.4 L 57.0 -38.0 "
       style="stroke-width:0.1;stroke-miterlimit:4;stroke-dasharray:none;fill:none;fill-rule:evenodd;stroke:#0000ff;stroke-opacity:1"
       stroke-width="0.35 px"
       stroke="#000000" />
    <path
       id="Sketch_w0016"
       d="M 76.0 -38.0 L 89.6 -38.0 L 89.6 -24.4 L 76.0 -24.4 L 76.0 -38.0 "
       style="stroke-width:0.1;stroke-miterlimit:4;stroke-dasharray:none;fill:none;fill-rule:evenodd;stroke:#0000ff;stroke-opacity:1"
       stroke-width="0.35 px"
       stroke="#000000" />
    <path
       id="Sketch_w0017"
       d="M 95.0 -38.0 L 108.6 -38.0 L 108.6 -24.4 L 95.0 -24.4 L 95.0 -38.0 "
       style="stroke-width:0.1;stroke-miterlimit:4;stroke-dasharray:none;fill:none;fill-rule:evenodd;stroke:#0000ff;stroke-opacity:1"
       stroke-width="0.35 px"
       stroke="#000000" />
    <path
       id="Sketch_w0018"
       d="M 0.0 -57.0 L 13.6 -57.0 L 13.6 -43.4 L 0.0 -43.4 L 0.0 -57.0 "
       style="stroke-width:0.1;stroke-miterlimit:4;stroke-dasharray:none;fill:none;fill-rule:evenodd;stroke:#0000ff;stroke-opacity:1"
       stroke-width="0.35 px"
       stroke="#000000" />
    <path
       id="Sketch_w0019"
       d="M 19.0 -57.0 L 32.6 -57.0 L 32.6 -43.4 L 19.0 -43.4 L 19.0 -57.0 "
       style="stroke-width:0.1;stroke-miterlimit:4;stroke-dasharray:none;fill:none;fill-rule:evenodd;stroke:#0000ff;stroke-opacity:1"
       stroke-width="0.35 px"
       stroke="#000000" />
    <path
       id="Sketch_w0020"
       d="M 38.0 -57.0 L 51.6 -57.0 L 51.6 -43.4 L 38.0 -43.4 L 38.0 -57.0 "
       style="stroke-width:0.1;stroke-miterlimit:4;stroke-dasharray:none;fill:none;fill-rule:evenodd;stroke:#0000ff;stroke-opacity:1"
       stroke-width="0.35 px"
       stroke="#000000" />
    <path
       id="Sketch_w0021"
       d="M 57.0 -57.0 L 70.6 -57.0 L 70.6 -43.4 L 57.0 -43.4 L 57.0 -57.0 "
       style="stroke-width:0.1;stroke-miterlimit:4;stroke-dasharray:none;fill:none;fill-rule:evenodd;stroke:#0000ff;stroke-opacity:1"
       stroke-width="0.35 px"
       stroke="#000000" />
    <path
       id="Sketch_w0022"
       d="M 76.0 -57.0 L 89.6 -57.0 L 89.6 -43.4 L 76.0 -43.4 L 76.0 -57.0 "
       style="stroke-width:0.1;stroke-miterlimit:4;stroke-dasharray:none;fill:none;fill-rule:evenodd;stroke:#0000ff;stroke-opacity:1"
       stroke-width="0.35 px"
       stroke="#000000" />
    <path
       id="Sketch_w0023"
       d="M 95.0 -57.0 L 108.6 -57.0 L 108.6 -43.4 L 95.0 -43.4 L 95.0 -57.0 "
       style="stroke-width:0.1;stroke-miterlimit:4;stroke-dasharray:none;fill:none;fill-rule:evenodd;stroke:#0000ff;stroke-opacity:1"
       stroke-width="0.35 px"
       stroke="#000000" />
    <circle
       cx="92.3"
       cy="-40.7"
       r="0.9"
       style="stroke-width:0.1;stroke-miterlimit:4;stroke-dasharray:none;fill:none;stroke:#00ff00;stroke-opacity:1"
       id="circle26"
       stroke-width="0.35 px"
       stroke="#000000" />
    <circle
       cx="54.3"
       cy="-40.7"
       r="0.9"
       style="stroke-width:0.1;stroke-miterlimit:4;stroke-dasharray:none;fill:none;stroke:#00ff00;stroke-opacity:1"
       id="circle28"
       stroke-width="0.35 px"
       stroke="#000000" />
    <circle
       cx="16.3"
       cy="-40.7"
       r="0.9"
       style="stroke-width:0.1;stroke-miterlimit:4;stroke-dasharray:none;fill:none;stroke:#00ff00;stroke-opacity:1"
       id="circle30"
       stroke-width="0.35 px"
       stroke="#000000" />
    <circle
       cx="16.3"
       cy="-2.7"
       r="0.9"
       style="stroke-width:0.1;stroke-miterlimit:4;stroke-dasharray:none;fill:none;stroke:#00ff00;stroke-opacity:1"
       id="circle32"
       stroke-width="0.35 px"
       stroke="#000000" />
    <circle
       cx="54.3"
       cy="-2.7"
       r="0.9"
       style="stroke-width:0.1;stroke-miterlimit:4;stroke-dasharray:none;fill:none;stroke:#00ff00;stroke-opacity:1"
       id="circle34"
       stroke-width="0.35 px"
       stroke="#000000" />
    <circle
       cx="92.3"
       cy="-2.7"
       r="0.9"
       style="stroke-width:0.1;stroke-miterlimit:4;stroke-dasharray:none;fill:none;stroke:#00ff00;stroke-opacity:1"
       id="circle36"
       stroke-width="0.35 px"
       stroke="#000000" />
    <path
       id="Sketch_w0030"
       d="M 1.53080849956e-16 18.6 A 5 5 0 0 1 -5 13.6L -5.0 -57.0 A 5 5 0 0 1 -9.18485e-16 -62L 108.6 -62.0 A 5 5 0 0 1 113.6 -57L 113.6 13.6 A 5 5 0 0 1 108.6 18.6L 1.53080849956e-16 18.6 "
       style="stroke-width:0.1;stroke-miterlimit:4;stroke-dasharray:none;fill:none;fill-rule:evenodd;stroke:#ff0000;stroke-opacity:1"
       stroke-width="0.35 px"
       stroke="#000000" />
    <title
       id="title39">Sketch</title>
  </g>
</svg>
