<?xml version="1.0" encoding="UTF-8" standalone="no"?>
<svg
   xmlns:dc="http://purl.org/dc/elements/1.1/"
   xmlns:cc="http://creativecommons.org/ns#"
   xmlns:rdf="http://www.w3.org/1999/02/22-rdf-syntax-ns#"
   xmlns:svg="http://www.w3.org/2000/svg"
   xmlns="http://www.w3.org/2000/svg"
   xmlns:sodipodi="http://sodipodi.sourceforge.net/DTD/sodipodi-0.dtd"
   xmlns:inkscape="http://www.inkscape.org/namespaces/inkscape"
   width="117.096mm"
   height="79.096mm"
   viewBox="0 0 117.096 79.096"
   version="1.1"
   id="svg42"
   sodipodi:docname="switch mounting plate.svg"
   inkscape:version="0.92.4 (unknown)">
  <metadata
     id="metadata48">
    <rdf:RDF>
      <cc:Work
         rdf:about="">
        <dc:format>image/svg+xml</dc:format>
        <dc:type
           rdf:resource="http://purl.org/dc/dcmitype/StillImage" />
      </cc:Work>
    </rdf:RDF>
  </metadata>
  <defs
     id="defs46" />
  <sodipodi:namedview
     pagecolor="#ffffff"
     bordercolor="#666666"
     borderopacity="1"
     objecttolerance="10"
     gridtolerance="10"
     guidetolerance="10"
     inkscape:pageopacity="0"
     inkscape:pageshadow="2"
     inkscape:window-width="1366"
     inkscape:window-height="714"
     id="namedview44"
     showgrid="false"
     inkscape:zoom="1.7319474"
     inkscape:cx="221.28378"
     inkscape:cy="157.39784"
     inkscape:window-x="0"
     inkscape:window-y="25"
     inkscape:window-maximized="1"
     inkscape:current-layer="Sketch" />
  <g
     id="Sketch"
     transform="translate(4.148000,17.948000) scale(1,-1)"
     style="stroke-width:0.1;stroke-miterlimit:4;stroke-dasharray:none">
    <path
       id="Sketch_w0000"
       d="M 0.0 0.0 L 13.8 0.0 L 13.8 13.8 L 0.0 13.8 L 0.0 0.0 "
       style="stroke-width:0.1;stroke-miterlimit:4;stroke-dasharray:none;fill:none;fill-rule:evenodd;stroke:#e70000;stroke-opacity:1"
       stroke-width="0.35 px"
       stroke="#000000" />
    <path
       id="Sketch_w0001"
       d="M 19.0 0.0 L 32.8 0.0 L 32.8 13.8 L 19.0 13.8 L 19.0 0.0 "
       style="stroke-width:0.1;stroke-miterlimit:4;stroke-dasharray:none;fill:none;fill-rule:evenodd;stroke:#e70000;stroke-opacity:1"
       stroke-width="0.35 px"
       stroke="#000000" />
    <path
       id="Sketch_w0002"
       d="M 38.0 0.0 L 51.8 0.0 L 51.8 13.8 L 38.0 13.8 L 38.0 0.0 "
       style="stroke-width:0.1;stroke-miterlimit:4;stroke-dasharray:none;fill:none;fill-rule:evenodd;stroke:#e70000;stroke-opacity:1"
       stroke-width="0.35 px"
       stroke="#000000" />
    <path
       id="Sketch_w0003"
       d="M 57.0 0.0 L 70.8 0.0 L 70.8 13.8 L 57.0 13.8 L 57.0 0.0 "
       style="stroke-width:0.1;stroke-miterlimit:4;stroke-dasharray:none;fill:none;fill-rule:evenodd;stroke:#e70000;stroke-opacity:1"
       stroke-width="0.35 px"
       stroke="#000000" />
    <path
       id="Sketch_w0004"
       d="M 76.0 0.0 L 89.8 0.0 L 89.8 13.8 L 76.0 13.8 L 76.0 0.0 "
       style="stroke-width:0.1;stroke-miterlimit:4;stroke-dasharray:none;fill:none;fill-rule:evenodd;stroke:#e70000;stroke-opacity:1"
       stroke-width="0.35 px"
       stroke="#000000" />
    <path
       id="Sketch_w0005"
       d="M 95.0 0.0 L 108.8 0.0 L 108.8 13.8 L 95.0 13.8 L 95.0 0.0 "
       style="stroke-width:0.1;stroke-miterlimit:4;stroke-dasharray:none;fill:none;fill-rule:evenodd;stroke:#e70000;stroke-opacity:1"
       stroke-width="0.35 px"
       stroke="#000000" />
    <path
       id="Sketch_w0006"
       d="M 0.0 -19.0 L 13.8 -19.0 L 13.8 -5.2 L 0.0 -5.2 L 0.0 -19.0 "
       style="stroke-width:0.1;stroke-miterlimit:4;stroke-dasharray:none;fill:none;fill-rule:evenodd;stroke:#e70000;stroke-opacity:1"
       stroke-width="0.35 px"
       stroke="#000000" />
    <path
       id="Sketch_w0007"
       d="M 19.0 -19.0 L 32.8 -19.0 L 32.8 -5.2 L 19.0 -5.2 L 19.0 -19.0 "
       style="stroke-width:0.1;stroke-miterlimit:4;stroke-dasharray:none;fill:none;fill-rule:evenodd;stroke:#e70000;stroke-opacity:1"
       stroke-width="0.35 px"
       stroke="#000000" />
    <path
       id="Sketch_w0008"
       d="M 38.0 -19.0 L 51.8 -19.0 L 51.8 -5.2 L 38.0 -5.2 L 38.0 -19.0 "
       style="stroke-width:0.1;stroke-miterlimit:4;stroke-dasharray:none;fill:none;fill-rule:evenodd;stroke:#e70000;stroke-opacity:1"
       stroke-width="0.35 px"
       stroke="#000000" />
    <path
       id="Sketch_w0009"
       d="M 57.0 -19.0 L 70.8 -19.0 L 70.8 -5.2 L 57.0 -5.2 L 57.0 -19.0 "
       style="stroke-width:0.1;stroke-miterlimit:4;stroke-dasharray:none;fill:none;fill-rule:evenodd;stroke:#e70000;stroke-opacity:1"
       stroke-width="0.35 px"
       stroke="#000000" />
    <path
       id="Sketch_w0010"
       d="M 76.0 -19.0 L 89.8 -19.0 L 89.8 -5.2 L 76.0 -5.2 L 76.0 -19.0 "
       style="stroke-width:0.1;stroke-miterlimit:4;stroke-dasharray:none;fill:none;fill-rule:evenodd;stroke:#e70000;stroke-opacity:1"
       stroke-width="0.35 px"
       stroke="#000000" />
    <path
       id="Sketch_w0011"
       d="M 95.0 -19.0 L 108.8 -19.0 L 108.8 -5.2 L 95.0 -5.2 L 95.0 -19.0 "
       style="stroke-width:0.1;stroke-miterlimit:4;stroke-dasharray:none;fill:none;fill-rule:evenodd;stroke:#e70000;stroke-opacity:1"
       stroke-width="0.35 px"
       stroke="#000000" />
    <path
       id="Sketch_w0012"
       d="M 0.0 -38.0 L 13.8 -38.0 L 13.8 -24.2 L 0.0 -24.2 L 0.0 -38.0 "
       style="stroke-width:0.1;stroke-miterlimit:4;stroke-dasharray:none;fill:none;fill-rule:evenodd;stroke:#e70000;stroke-opacity:1"
       stroke-width="0.35 px"
       stroke="#000000" />
    <path
       id="Sketch_w0013"
       d="M 19.0 -38.0 L 32.8 -38.0 L 32.8 -24.2 L 19.0 -24.2 L 19.0 -38.0 "
       style="stroke-width:0.1;stroke-miterlimit:4;stroke-dasharray:none;fill:none;fill-rule:evenodd;stroke:#e70000;stroke-opacity:1"
       stroke-width="0.35 px"
       stroke="#000000" />
    <path
       id="Sketch_w0014"
       d="M 38.0 -38.0 L 51.8 -38.0 L 51.8 -24.2 L 38.0 -24.2 L 38.0 -38.0 "
       style="stroke-width:0.1;stroke-miterlimit:4;stroke-dasharray:none;fill:none;fill-rule:evenodd;stroke:#e70000;stroke-opacity:1"
       stroke-width="0.35 px"
       stroke="#000000" />
    <path
       id="Sketch_w0015"
       d="M 57.0 -38.0 L 70.8 -38.0 L 70.8 -24.2 L 57.0 -24.2 L 57.0 -38.0 "
       style="stroke-width:0.1;stroke-miterlimit:4;stroke-dasharray:none;fill:none;fill-rule:evenodd;stroke:#e70000;stroke-opacity:1"
       stroke-width="0.35 px"
       stroke="#000000" />
    <path
       id="Sketch_w0016"
       d="M 76.0 -38.0 L 89.8 -38.0 L 89.8 -24.2 L 76.0 -24.2 L 76.0 -38.0 "
       style="stroke-width:0.1;stroke-miterlimit:4;stroke-dasharray:none;fill:none;fill-rule:evenodd;stroke:#e70000;stroke-opacity:1"
       stroke-width="0.35 px"
       stroke="#000000" />
    <path
       id="Sketch_w0017"
       d="M 95.0 -38.0 L 108.8 -38.0 L 108.8 -24.2 L 95.0 -24.2 L 95.0 -38.0 "
       style="stroke-width:0.1;stroke-miterlimit:4;stroke-dasharray:none;fill:none;fill-rule:evenodd;stroke:#e70000;stroke-opacity:1"
       stroke-width="0.35 px"
       stroke="#000000" />
    <path
       id="Sketch_w0018"
       d="M 0.0 -57.0 L 13.8 -57.0 L 13.8 -43.2 L 0.0 -43.2 L 0.0 -57.0 "
       style="stroke-width:0.1;stroke-miterlimit:4;stroke-dasharray:none;fill:none;fill-rule:evenodd;stroke:#e70000;stroke-opacity:1"
       stroke-width="0.35 px"
       stroke="#000000" />
    <path
       id="Sketch_w0019"
       d="M 19.0 -57.0 L 32.8 -57.0 L 32.8 -43.2 L 19.0 -43.2 L 19.0 -57.0 "
       style="stroke-width:0.1;stroke-miterlimit:4;stroke-dasharray:none;fill:none;fill-rule:evenodd;stroke:#e70000;stroke-opacity:1"
       stroke-width="0.35 px"
       stroke="#000000" />
    <path
       id="Sketch_w0020"
       d="M 38.0 -57.0 L 51.8 -57.0 L 51.8 -43.2 L 38.0 -43.2 L 38.0 -57.0 "
       style="stroke-width:0.1;stroke-miterlimit:4;stroke-dasharray:none;fill:none;fill-rule:evenodd;stroke:#e70000;stroke-opacity:1"
       stroke-width="0.35 px"
       stroke="#000000" />
    <path
       id="Sketch_w0021"
       d="M 57.0 -57.0 L 70.8 -57.0 L 70.8 -43.2 L 57.0 -43.2 L 57.0 -57.0 "
       style="stroke-width:0.1;stroke-miterlimit:4;stroke-dasharray:none;fill:none;fill-rule:evenodd;stroke:#e70000;stroke-opacity:1"
       stroke-width="0.35 px"
       stroke="#000000" />
    <path
       id="Sketch_w0022"
       d="M 76.0 -57.0 L 89.8 -57.0 L 89.8 -43.2 L 76.0 -43.2 L 76.0 -57.0 "
       style="stroke-width:0.1;stroke-miterlimit:4;stroke-dasharray:none;fill:none;fill-rule:evenodd;stroke:#e70000;stroke-opacity:1"
       stroke-width="0.35 px"
       stroke="#000000" />
    <path
       id="Sketch_w0023"
       d="M 95.0 -57.0 L 108.8 -57.0 L 108.8 -43.2 L 95.0 -43.2 L 95.0 -57.0 "
       style="stroke-width:0.1;stroke-miterlimit:4;stroke-dasharray:none;fill:none;fill-rule:evenodd;stroke:#e70000;stroke-opacity:1"
       stroke-width="0.35 px"
       stroke="#000000" />
    <circle
       cx="92.4"
       cy="-40.6"
       r="1.0"
       style="stroke-width:0.1;stroke-miterlimit:4;stroke-dasharray:none;fill:none;stroke:#00fe00;stroke-opacity:1"
       id="circle26"
       stroke-width="0.35 px"
       stroke="#000000" />
    <circle
       cx="54.4"
       cy="-40.6"
       r="1.0"
       style="stroke-width:0.1;stroke-miterlimit:4;stroke-dasharray:none;fill:none;stroke:#00fe00;stroke-opacity:1"
       id="circle28"
       stroke-width="0.35 px"
       stroke="#000000" />
    <circle
       cx="16.4"
       cy="-40.6"
       r="1.0"
       style="stroke-width:0.1;stroke-miterlimit:4;stroke-dasharray:none;fill:none;stroke:#00fe00;stroke-opacity:1"
       id="circle30"
       stroke-width="0.35 px"
       stroke="#000000" />
    <circle
       cx="16.4"
       cy="-2.6"
       r="1.0"
       style="stroke-width:0.1;stroke-miterlimit:4;stroke-dasharray:none;fill:none;stroke:#00fe00;stroke-opacity:1"
       id="circle32"
       stroke-width="0.35 px"
       stroke="#000000" />
    <circle
       cx="54.4"
       cy="-2.6"
       r="1.0"
       style="stroke-width:0.1;stroke-miterlimit:4;stroke-dasharray:none;fill:none;stroke:#00fe00;stroke-opacity:1"
       id="circle34"
       stroke-width="0.35 px"
       stroke="#000000" />
    <circle
       cx="92.4"
       cy="-2.6"
       r="1.0"
       style="stroke-width:0.1;stroke-miterlimit:4;stroke-dasharray:none;fill:none;stroke:#00fe00;stroke-opacity:1"
       id="circle36"
       stroke-width="0.35 px"
       stroke="#000000" />
    <path
       id="Sketch_w0030"
       d="M 9.18485097425e-17 16.8 A 3 3 0 0 1 -3 13.8L -3.0 -57.0 A 3 3 0 0 1 -5.51091e-16 -60L 108.8 -60.0 A 3 3 0 0 1 111.8 -57L 111.8 13.8 A 3 3 0 0 1 108.8 16.8L 9.18485097425e-17 16.8 "
       style="stroke-width:0.1;stroke-miterlimit:4;stroke-dasharray:none;fill:none;fill-rule:evenodd;stroke:#0000f8;stroke-opacity:1"
       stroke-width="0.35 px"
       stroke="#000000" />
    <title
       id="title39">Sketch</title>
  </g>
</svg>
